<svg version="1.1" id="Layer_1" xmlns="http://www.w3.org/2000/svg" xmlns:xlink="http://www.w3.org/1999/xlink" x="0px" y="0px"
	 width="100%" viewBox="0 0 374 280" enable-background="new 0 0 374 280" xml:space="preserve">
<path fill="#000000" opacity="1.000000" stroke="none" 
	d="
M375.000000,144.000000 
	C375.000000,189.635818 375.000000,235.271622 375.000000,280.953735 
	C250.448441,280.953735 125.896858,280.953735 1.000000,280.953735 
	C1.000000,235.646362 1.000000,190.291840 1.258352,144.107025 
	C11.402205,147.327103 21.287704,151.377502 31.107672,155.401047 
	C33.944733,150.110092 33.573898,145.197296 30.505356,144.011047 
	C25.830950,142.203995 21.118481,140.495377 16.032768,138.599823 
	C17.399691,137.935318 18.376261,137.376556 19.412949,136.971771 
	C23.056229,135.549194 26.803856,134.361206 30.348055,132.728561 
	C32.881271,131.561630 34.460743,125.523010 32.437641,123.571678 
	C31.363287,122.535431 28.342150,122.826767 26.495564,123.427673 
	C22.801262,124.629868 19.370886,126.618576 15.720731,127.986977 
	C10.869216,129.805740 5.911874,131.342224 0.999999,133.000000 
	C1.000000,89.030190 1.000000,45.060379 1.000000,1.045283 
	C125.550926,1.045283 250.101883,1.045283 375.000000,1.045283 
	C375.000000,44.686947 375.000000,88.374817 374.612427,132.576767 
	C364.381317,129.243439 354.537781,125.396027 344.417542,121.440475 
	C343.978241,130.707550 341.597168,131.944641 352.028748,135.094025 
	C354.621887,135.876923 357.040558,137.237839 359.709106,138.407455 
	C357.796600,139.306290 356.195068,140.107407 354.553894,140.816635 
	C352.914124,141.525253 351.215088,142.096786 349.576050,142.806961 
	C343.425934,145.471725 342.428894,148.152420 345.208405,155.029465 
	C355.131439,151.355759 365.065704,147.677872 375.000000,144.000000 
M214.057007,158.053131 
	C214.057007,158.053131 214.060410,158.019836 214.526215,157.891083 
	C214.833771,157.708557 214.982925,157.438553 215.074783,157.069702 
	C215.074783,157.069702 215.065155,156.968399 215.600082,156.724060 
	C215.671219,156.161209 215.742355,155.598373 215.971924,154.290146 
	C216.996262,153.129807 218.020584,151.969452 219.828415,150.968796 
	C220.885925,150.898941 221.943436,150.829086 223.671936,151.128723 
	C224.435257,153.449982 225.198578,155.771240 226.379364,158.790344 
	C229.270294,158.218445 232.161209,157.646545 235.005936,157.018433 
	C235.005936,157.018433 235.050629,157.066437 235.479965,156.925415 
	C235.818741,156.757477 235.903595,156.504623 235.808853,155.363495 
	C233.912933,148.228195 232.016998,141.092896 229.992218,133.359055 
	C229.670776,132.886612 229.349335,132.414169 228.976913,131.452835 
	C228.976913,131.452835 228.825073,130.985321 228.939163,130.505447 
	C228.939163,130.505447 228.822250,130.026245 228.956421,129.266953 
	C228.246750,127.178284 227.537079,125.089615 226.955551,122.292091 
	C226.326828,120.865364 225.698105,119.438637 225.059494,117.931129 
	C225.059494,117.931129 224.978546,117.939461 224.553665,117.281860 
	C222.722778,117.250664 220.891891,117.219475 218.515625,117.077255 
	C218.333572,117.112938 218.151505,117.148628 217.381805,117.040726 
	C216.933777,117.333504 216.485764,117.626282 215.854614,117.928207 
	C215.854614,117.928207 215.861115,118.111443 215.486420,118.191711 
	C215.239670,118.332970 215.123627,118.545624 214.530701,119.120628 
	C214.426331,119.748276 214.321945,120.375916 214.052811,121.659889 
	C214.092545,122.106720 214.132294,122.553558 214.021393,123.435532 
	C214.021393,123.435532 213.955948,123.891342 213.291183,124.208984 
	C212.923492,125.774574 212.555817,127.340172 211.958267,129.652359 
	C210.946960,133.753998 209.935654,137.855652 208.465317,142.104767 
	C208.122894,142.302917 208.033966,142.581985 207.873734,143.639343 
	C207.314178,145.766464 206.754608,147.893585 206.047516,150.491776 
	C206.047516,150.491776 206.157211,150.973068 206.010681,151.582428 
	C205.691025,152.014618 205.371353,152.446808 205.015350,151.959839 
	C204.932007,141.322189 204.848648,130.684540 204.722015,119.295502 
	C201.994598,115.586250 198.013763,116.777298 194.737488,117.528740 
	C193.712021,117.763939 193.357834,121.757889 193.057693,124.078049 
	C192.784012,126.193802 192.999710,128.372849 192.999710,131.797028 
	C187.946564,124.880989 188.216537,113.670036 175.906052,117.732864 
	C175.906052,130.145569 175.906052,142.570099 174.982285,155.015396 
	C168.358276,155.003876 161.734268,154.992340 155.001938,154.136169 
	C155.473404,150.342743 154.099731,148.528320 149.996201,148.942047 
	C147.094330,149.234619 144.139175,148.998657 141.221680,148.998657 
	C141.221680,146.275345 141.221680,144.223557 141.221680,143.427078 
	C144.743484,139.181793 152.217987,146.572510 152.863785,137.939514 
	C153.602753,128.061050 144.919464,134.113800 141.091843,131.242126 
	C140.828964,130.228271 140.468124,128.836639 139.984512,126.971481 
	C142.898834,126.971481 145.532074,126.972656 148.165314,126.971260 
	C155.620956,126.967293 156.753036,125.177353 153.526642,117.213654 
	C146.021164,117.459419 138.515671,117.705177 130.950409,117.939743 
	C130.950409,117.939743 130.945816,118.000389 130.312347,118.271980 
	C130.268784,119.172325 130.225220,120.072670 130.035843,121.724495 
	C130.078217,122.486069 130.120590,123.247650 130.013977,124.935112 
	C130.062195,134.614929 130.110413,144.294739 130.021912,154.811081 
	C130.790192,156.189270 131.559860,158.760803 132.326553,158.759903 
	C139.498596,158.751602 146.670120,158.302414 153.980316,158.824387 
	C153.510361,162.584656 154.902451,164.306183 158.940491,164.007706 
	C162.876465,163.716766 166.874725,163.666946 170.801727,164.011612 
	C175.472702,164.421600 177.760269,162.907791 177.801712,158.277374 
	C184.711761,159.915222 185.998199,158.947571 186.002716,152.103775 
	C186.004974,148.700134 186.003098,145.296494 186.003098,141.892838 
	C187.793045,144.418884 188.937332,147.040878 190.070023,149.667862 
	C194.575104,160.116180 196.604156,161.126770 205.263489,157.742477 
	C207.495117,158.101135 209.726730,158.459808 212.485382,158.948425 
	C212.661407,158.906570 212.837433,158.864700 213.514557,158.882919 
	C213.684525,158.608871 213.854492,158.334824 214.057007,158.053131 
M271.117462,156.964417 
	C271.117462,156.964417 271.071594,156.767075 271.599701,156.151688 
	C271.724518,144.677856 271.980469,133.202942 271.886292,121.730911 
	C271.861267,118.681892 270.117828,116.835739 266.409485,116.924721 
	C256.395142,117.165039 246.369858,117.109009 236.352112,116.958534 
	C232.765839,116.904663 230.898651,117.544037 230.868500,121.837082 
	C230.837570,126.243927 232.546814,127.479385 236.489410,126.995209 
	C237.238083,126.903282 238.029892,127.162743 239.031357,127.289017 
	C239.031357,135.894684 239.148819,144.194183 238.981628,152.487946 
	C238.898529,156.609772 239.809021,159.197006 244.670578,159.026428 
	C250.062027,158.837234 250.965683,158.118591 250.972229,152.575958 
	C250.982208,144.135376 250.974854,135.694763 250.974854,127.380569 
	C254.310776,126.985146 257.068542,126.658249 259.992188,126.311691 
	C259.992188,134.529999 259.935486,143.014542 260.036285,151.497223 
	C260.058533,153.368973 260.638885,155.234116 261.106232,157.588867 
	C261.391388,157.752396 261.676514,157.915909 262.121857,158.558365 
	C262.417358,158.645447 262.712891,158.732529 263.496094,158.949387 
	C263.659027,158.907578 263.821991,158.865768 264.779114,158.957443 
	C266.830322,158.320801 268.881500,157.684158 271.117462,156.964417 
M274.009369,130.812042 
	C274.008881,136.278488 273.891235,141.748093 274.038971,147.210526 
	C274.205200,153.356461 279.837372,158.397919 286.060150,159.050659 
	C295.551300,160.046234 301.576233,153.179550 301.894440,147.901871 
	C302.253082,141.953598 301.881775,135.961288 301.967194,129.192215 
	C301.750244,121.247162 295.652039,116.751076 285.462433,117.023560 
	C279.134583,117.192772 273.874054,123.233154 274.009369,130.812042 
M313.576111,117.277802 
	C312.754425,117.191681 311.933990,117.045944 311.110870,117.028801 
	C304.052917,116.881760 304.024414,116.888626 304.002106,124.055840 
	C303.973175,133.354126 303.948608,142.652985 304.037109,151.950516 
	C304.053345,153.655594 304.617706,155.355438 305.269012,157.746246 
	C313.665131,161.407150 316.101196,158.339035 316.036163,143.594833 
	C318.202087,148.051743 319.999878,152.117233 322.116638,156.009262 
	C324.477905,160.350784 330.074005,160.309189 333.760925,155.581268 
	C333.824219,144.894821 333.916077,134.208374 333.910706,123.521965 
	C333.910095,122.332489 333.356110,121.143288 332.980164,119.148521 
	C329.999115,118.141472 327.018066,117.134415 322.814667,115.714432 
	C322.424988,122.155952 322.121399,127.174240 321.749939,133.314285 
	C320.174744,129.754639 319.187988,127.250244 317.974701,124.860886 
	C316.779327,122.506813 315.354523,120.269249 313.576111,117.277802 
M100.443695,156.681946 
	C103.604469,160.900223 108.142670,158.868362 111.983231,158.834991 
	C119.459579,158.770004 127.592796,152.319946 127.901154,146.692978 
	C128.165649,141.866425 128.272568,136.992477 127.910179,132.180084 
	C127.451241,126.085533 125.780029,120.362740 118.638542,118.962372 
	C113.915298,118.036201 109.084167,117.663673 104.304123,117.022537 
	C100.897018,116.565552 99.979965,118.344658 100.009697,121.399910 
	C100.121399,132.876480 100.122108,144.354126 100.443695,156.681946 
M78.702507,158.205078 
	C89.797806,161.879883 97.864517,154.096146 98.837524,146.291779 
	C99.510780,140.891632 99.331604,135.311279 98.891541,129.863281 
	C98.200363,121.306503 90.993294,116.404831 80.767799,117.019066 
	C74.826614,117.375946 70.040695,123.625290 70.002808,131.116608 
	C69.979286,135.769470 69.913391,140.424484 70.019958,145.075012 
	C70.152611,150.863693 72.422897,155.433182 78.702507,158.205078 
M54.652382,117.000885 
	C49.865154,116.542747 46.196358,118.576950 44.185867,122.733459 
	C39.425961,132.574142 39.466145,142.663467 43.961361,152.581070 
	C46.233971,157.595062 52.985439,160.155807 59.250706,158.914841 
	C63.985531,157.976990 68.515846,153.355133 68.855026,148.401886 
	C68.973465,146.672226 67.485641,143.270813 66.971695,143.316833 
	C63.970943,143.585541 59.940968,140.757324 58.118259,145.863495 
	C57.574726,147.386139 55.600475,148.398087 54.281754,149.644028 
	C53.848488,149.287170 53.415218,148.930313 52.981953,148.573441 
	C52.981953,142.595139 52.806438,136.608139 53.101830,130.644470 
	C53.178413,129.098312 54.728806,127.625160 55.602234,126.118469 
	C56.411980,127.308159 57.534458,128.393509 57.972767,129.707123 
	C59.281338,133.628906 62.396584,133.100037 65.336258,132.925034 
	C68.113861,132.759659 69.113731,131.254379 69.069237,128.367996 
	C68.960892,121.338943 64.003487,117.024879 54.652382,117.000885 
z"/>
<path fill="#95979A" opacity="1.000000" stroke="none" 
	d="
M0.999999,133.458069 
	C5.911874,131.342224 10.869216,129.805740 15.720731,127.986977 
	C19.370886,126.618576 22.801262,124.629868 26.495564,123.427673 
	C28.342150,122.826767 31.363287,122.535431 32.437641,123.571678 
	C34.460743,125.523010 32.881271,131.561630 30.348055,132.728561 
	C26.803856,134.361206 23.056229,135.549194 19.412949,136.971771 
	C18.376261,137.376556 17.399691,137.935318 16.032768,138.599823 
	C21.118481,140.495377 25.830950,142.203995 30.505356,144.011047 
	C33.573898,145.197296 33.944733,150.110092 31.107672,155.401047 
	C21.287704,151.377502 11.402205,147.327103 1.258352,143.638367 
	C1.000000,140.638718 1.000000,137.277420 0.999999,133.458069 
z"/>
<path fill="#95979A" opacity="1.000000" stroke="none" 
	d="
M375.000000,143.541931 
	C365.065704,147.677872 355.131439,151.355759 345.208405,155.029465 
	C342.428894,148.152420 343.425934,145.471725 349.576050,142.806961 
	C351.215088,142.096786 352.914124,141.525253 354.553894,140.816635 
	C356.195068,140.107407 357.796600,139.306290 359.709106,138.407455 
	C357.040558,137.237839 354.621887,135.876923 352.028748,135.094025 
	C341.597168,131.944641 343.978241,130.707550 344.417542,121.440475 
	C354.537781,125.396027 364.381317,129.243439 374.612427,133.045425 
	C375.000000,136.361282 375.000000,139.722580 375.000000,143.541931 
z"/>
<path fill="#F66B49" opacity="1.000000" stroke="none" 
	d="
M219.044922,150.809113 
	C218.020584,151.969452 216.996262,153.129807 215.747467,154.882111 
	C215.370407,155.972183 215.217789,156.470291 215.065155,156.968399 
	C215.065155,156.968399 215.074783,157.069702 214.854340,157.212952 
	C214.418030,157.556046 214.226868,157.777267 214.060410,158.019836 
	C214.060410,158.019836 214.057007,158.053131 213.860443,158.167542 
	C213.429993,158.441727 213.213196,158.622009 213.013474,158.822830 
	C212.837433,158.864700 212.661407,158.906570 211.977783,158.617035 
	C209.285156,157.874268 207.100159,157.462906 204.915146,157.051544 
	C196.604156,161.126770 194.575104,160.116180 190.070023,149.667862 
	C188.937332,147.040878 187.793045,144.418884 186.003098,141.892838 
	C186.003098,145.296494 186.004974,148.700134 186.002716,152.103775 
	C185.998199,158.947571 184.711761,159.915222 177.295639,157.842529 
	C176.495056,156.603333 176.200546,155.798981 175.906052,154.994644 
	C175.906052,142.570099 175.906052,130.145569 175.906052,117.732864 
	C188.216537,113.670036 187.946564,124.880989 192.999710,131.797028 
	C192.999710,128.372849 192.784012,126.193802 193.057693,124.078049 
	C193.357834,121.757889 193.712021,117.763939 194.737488,117.528740 
	C198.013763,116.777298 201.994598,115.586250 204.576935,120.041870 
	C204.322281,131.151749 204.203796,141.515213 204.143433,151.878998 
	C204.141510,152.210571 204.735489,152.545593 205.051682,152.878998 
	C205.371353,152.446808 205.691025,152.014618 206.153366,151.168060 
	C206.388168,150.495377 206.354507,150.251053 206.195038,150.020721 
	C206.754608,147.893585 207.314178,145.766464 208.176422,143.141220 
	C208.654083,142.431732 208.802490,142.203140 208.924332,141.957291 
	C209.935654,137.855652 210.946960,133.753998 212.252411,129.005371 
	C213.016357,126.869354 213.486145,125.380348 213.955948,123.891342 
	C213.955948,123.891342 214.021393,123.435532 214.306610,123.132751 
	C214.467072,122.221176 214.342316,121.612366 214.217575,121.003563 
	C214.321945,120.375916 214.426331,119.748276 214.971649,118.877464 
	C215.587494,118.481804 215.737000,118.307518 215.861115,118.111443 
	C215.861115,118.111443 215.854614,117.928207 216.205826,117.887314 
	C217.027832,117.625725 217.498642,117.405022 217.969437,117.184326 
	C218.151505,117.148628 218.333572,117.112938 219.118851,117.299210 
	C221.474228,117.660599 223.226395,117.800034 224.978546,117.939461 
	C224.978546,117.939461 225.059494,117.931129 224.937683,118.248306 
	C224.128464,119.427315 223.441071,120.289131 222.310181,121.706970 
	C224.137161,122.230316 225.482285,122.615631 226.827423,123.000946 
	C227.537079,125.089615 228.246750,127.178284 228.824829,129.759964 
	C228.613022,130.516022 228.656967,130.760132 228.825073,130.985321 
	C228.825073,130.985321 228.976913,131.452835 229.076782,131.979538 
	C229.491470,132.990021 229.806274,133.473801 230.121078,133.957596 
	C232.016998,141.092896 233.912933,148.228195 235.634674,155.894501 
	C235.298264,156.622757 235.161636,156.836395 235.050629,157.066437 
	C235.050629,157.066437 235.005936,157.018433 234.589111,157.030258 
	C231.435486,157.392227 228.698685,157.742355 225.961899,158.092499 
	C225.198578,155.771240 224.435257,153.449982 223.219162,150.734497 
	C221.525894,150.496567 220.285416,150.652847 219.044922,150.809113 
M220.421463,136.488708 
	C220.194778,137.413086 219.968094,138.337463 219.741394,139.261826 
	C220.172745,139.311203 220.604111,139.360580 221.035461,139.409958 
	C220.952179,138.526398 220.868896,137.642838 220.421463,136.488708 
z"/>
<path fill="#F76B48" opacity="1.000000" stroke="none" 
	d="
M333.051025,156.083847 
	C330.074005,160.309189 324.477905,160.350784 322.116638,156.009262 
	C319.999878,152.117233 318.202087,148.051743 316.036163,143.594833 
	C316.101196,158.339035 313.665131,161.407150 305.120667,156.932053 
	C304.985229,145.298401 305.082489,134.478043 304.967010,123.659958 
	C304.924347,119.665131 306.418243,117.694069 310.536102,117.999031 
	C311.694061,118.084793 312.865234,117.991653 314.030365,117.980576 
	C315.354523,120.269249 316.779327,122.506813 317.974701,124.860886 
	C319.187988,127.250244 320.174744,129.754639 321.749939,133.314285 
	C322.121399,127.174240 322.424988,122.155952 322.814667,115.714432 
	C327.018066,117.134415 329.999115,118.141472 332.997559,120.020676 
	C333.026947,132.623169 333.039001,144.353516 333.051025,156.083847 
z"/>
<path fill="#F76B48" opacity="1.000000" stroke="none" 
	d="
M100.304047,156.256653 
	C100.122108,144.354126 100.121399,132.876480 100.009697,121.399910 
	C99.979965,118.344658 100.897018,116.565552 104.304123,117.022537 
	C109.084167,117.663673 113.915298,118.036201 118.638542,118.962372 
	C125.780029,120.362740 127.451241,126.085533 127.910179,132.180084 
	C128.272568,136.992477 128.165649,141.866425 127.901154,146.692978 
	C127.592796,152.319946 119.459579,158.770004 111.983231,158.834991 
	C108.142670,158.868362 103.604469,160.900223 100.304047,156.256653 
M112.275978,148.638214 
	C114.965523,148.537170 117.038300,147.792328 117.008347,144.507889 
	C116.969215,140.216293 117.348358,135.888626 116.887817,131.648132 
	C116.688408,129.811981 114.840805,128.154831 113.741859,126.416382 
	C113.159271,126.676117 112.576675,126.935860 111.994087,127.195602 
	C111.994087,134.064774 111.994087,140.933945 112.275978,148.638214 
z"/>
<path fill="#F66B49" opacity="1.000000" stroke="none" 
	d="
M78.312469,158.092163 
	C72.422897,155.433182 70.152611,150.863693 70.019958,145.075012 
	C69.913391,140.424484 69.979286,135.769470 70.002808,131.116608 
	C70.040695,123.625290 74.826614,117.375946 80.767799,117.019066 
	C90.993294,116.404831 98.200363,121.306503 98.891541,129.863281 
	C99.331604,135.311279 99.510780,140.891632 98.837524,146.291779 
	C97.864517,154.096146 89.797806,161.879883 78.312469,158.092163 
M87.004082,145.103195 
	C87.030319,140.277939 87.271469,135.438675 86.958664,130.635498 
	C86.858002,129.089905 85.297493,127.639366 84.404831,126.145340 
	C83.261116,127.345673 81.179344,128.511627 81.133896,129.752213 
	C80.921898,135.538040 81.192390,141.349136 81.530190,147.137207 
	C81.569252,147.806396 83.466713,149.090500 83.870651,148.879547 
	C85.085808,148.244934 85.988564,147.012115 87.004082,145.103195 
z"/>
<path fill="#F66844" opacity="1.000000" stroke="none" 
	d="
M260.962219,157.102295 
	C260.638885,155.234116 260.058533,153.368973 260.036285,151.497223 
	C259.935486,143.014542 259.992188,134.529999 259.992188,126.311691 
	C257.068542,126.658249 254.310776,126.985146 250.974854,127.380569 
	C250.974854,135.694763 250.982208,144.135376 250.972229,152.575958 
	C250.965683,158.118591 250.062027,158.837234 244.670578,159.026428 
	C239.809021,159.197006 238.898529,156.609772 238.981628,152.487946 
	C239.148819,144.194183 239.031357,135.894684 239.031357,127.289017 
	C238.029892,127.162743 237.238083,126.903282 236.489410,126.995209 
	C232.546814,127.479385 230.837570,126.243927 230.868500,121.837082 
	C230.898651,117.544037 232.765839,116.904663 236.352112,116.958534 
	C246.369858,117.109009 256.395142,117.165039 266.409485,116.924721 
	C270.117828,116.835739 271.861267,118.681892 271.886292,121.730911 
	C271.980469,133.202942 271.724518,144.677856 271.306946,156.019699 
	C270.307831,147.643677 269.859894,139.364029 268.732483,131.177994 
	C268.407806,128.820297 266.125854,126.732162 264.741241,124.520439 
	C264.093445,124.706215 263.445618,124.891991 262.797821,125.077766 
	C262.185944,135.752609 261.574066,146.427444 260.962219,157.102295 
z"/>
<path fill="#F66B49" opacity="1.000000" stroke="none" 
	d="
M55.097076,117.001160 
	C64.003487,117.024879 68.960892,121.338943 69.069237,128.367996 
	C69.113731,131.254379 68.113861,132.759659 65.336258,132.925034 
	C62.396584,133.100037 59.281338,133.628906 57.972767,129.707123 
	C57.534458,128.393509 56.411980,127.308159 55.602234,126.118469 
	C54.728806,127.625160 53.178413,129.098312 53.101830,130.644470 
	C52.806438,136.608139 52.981953,142.595139 52.981953,148.573441 
	C53.415218,148.930313 53.848488,149.287170 54.281754,149.644028 
	C55.600475,148.398087 57.574726,147.386139 58.118259,145.863495 
	C59.940968,140.757324 63.970943,143.585541 66.971695,143.316833 
	C67.485641,143.270813 68.973465,146.672226 68.855026,148.401886 
	C68.515846,153.355133 63.985531,157.976990 59.250706,158.914841 
	C52.985439,160.155807 46.233971,157.595062 43.961361,152.581070 
	C39.466145,142.663467 39.425961,132.574142 44.185867,122.733459 
	C46.196358,118.576950 49.865154,116.542747 55.097076,117.001160 
z"/>
<path fill="#F76B48" opacity="1.000000" stroke="none" 
	d="
M153.826904,118.022034 
	C156.753036,125.177353 155.620956,126.967293 148.165314,126.971260 
	C145.532074,126.972656 142.898834,126.971481 139.984512,126.971481 
	C140.468124,128.836639 140.828964,130.228271 141.091843,131.242126 
	C144.919464,134.113800 153.602753,128.061050 152.863785,137.939514 
	C152.217987,146.572510 144.743484,139.181793 141.221680,143.427078 
	C141.221680,144.223557 141.221680,146.275345 141.221680,148.998657 
	C144.139175,148.998657 147.094330,149.234619 149.996201,148.942047 
	C154.099731,148.528320 155.473404,150.342743 154.888000,154.840820 
	C154.463303,156.357254 154.152542,157.169022 153.841797,157.980789 
	C146.670120,158.302414 139.498596,158.751602 132.326553,158.759903 
	C131.559860,158.760803 130.790192,156.189270 130.266220,154.023468 
	C130.394669,143.493652 130.278809,133.751434 130.162964,124.009224 
	C130.120590,123.247650 130.078217,122.486069 130.265182,121.078323 
	C130.644958,119.621567 130.795395,118.810974 130.945816,118.000389 
	C130.945816,118.000389 130.950409,117.939743 131.446747,117.959549 
	C139.237701,117.993584 146.532303,118.007805 153.826904,118.022034 
z"/>
<path fill="#F66B49" opacity="1.000000" stroke="none" 
	d="
M301.827942,129.988144 
	C301.881775,135.961288 302.253082,141.953598 301.894440,147.901871 
	C301.576233,153.179550 295.551300,160.046234 286.060150,159.050659 
	C279.837372,158.397919 274.205200,153.356461 274.038971,147.210526 
	C273.891235,141.748093 274.008881,136.278488 274.273499,130.106277 
	C275.998199,125.460243 278.479401,122.863266 282.965302,122.707863 
	C283.352295,125.012169 283.696289,127.060616 284.022766,129.569794 
	C284.006012,135.009888 283.704559,140.019241 284.193207,144.950287 
	C284.338379,146.415634 286.703369,147.661011 288.051208,149.007187 
	C289.033966,147.645309 290.761292,146.338379 290.866547,144.911774 
	C291.256378,139.628662 291.111115,134.306091 291.455566,128.839096 
	C295.343414,122.905609 296.531372,122.869377 300.640411,128.406799 
	C301.033234,128.936172 301.431946,129.461136 301.827942,129.988144 
z"/>
<path fill="#F66B49" opacity="1.000000" stroke="none" 
	d="
M261.034210,157.345581 
	C261.574066,146.427444 262.185944,135.752609 262.797821,125.077766 
	C263.445618,124.891991 264.093445,124.706215 264.741241,124.520439 
	C266.125854,126.732162 268.407806,128.820297 268.732483,131.177994 
	C269.859894,139.364029 270.307831,147.643677 271.042908,156.327393 
	C271.071594,156.767075 271.117462,156.964417 270.664124,156.963013 
	C267.876343,156.715927 265.100830,154.995819 263.984955,158.823959 
	C263.821991,158.865768 263.659027,158.907578 263.211365,158.725739 
	C262.604950,158.361191 262.283325,158.220306 261.961670,158.079422 
	C261.676514,157.915909 261.391388,157.752396 261.034210,157.345581 
z"/>
<path fill="#95979A" opacity="1.000000" stroke="none" 
	d="
M153.911041,158.402588 
	C154.152542,157.169022 154.463303,156.357254 154.942154,155.263153 
	C161.734268,154.992340 168.358276,155.003876 175.444168,155.005020 
	C176.200546,155.798981 176.495056,156.603333 176.923859,157.702499 
	C177.760269,162.907791 175.472702,164.421600 170.801727,164.011612 
	C166.874725,163.666946 162.876465,163.716766 158.940491,164.007706 
	C154.902451,164.306183 153.510361,162.584656 153.911041,158.402588 
z"/>
<path fill="#F66844" opacity="1.000000" stroke="none" 
	d="
M284.040314,129.109070 
	C283.696289,127.060616 283.352295,125.012169 282.965302,122.707863 
	C278.479401,122.863266 275.998199,125.460243 274.361267,129.686752 
	C273.874054,123.233154 279.134583,117.192772 285.462433,117.023560 
	C295.652039,116.751076 301.750244,121.247162 301.897583,129.590179 
	C301.431946,129.461136 301.033234,128.936172 300.640411,128.406799 
	C296.531372,122.869377 295.343414,122.905609 291.299805,128.519196 
	C288.127350,124.464935 285.985565,125.894882 284.040314,129.109070 
z"/>
<path fill="#F66844" opacity="1.000000" stroke="none" 
	d="
M313.803223,117.629189 
	C312.865234,117.991653 311.694061,118.084793 310.536102,117.999031 
	C306.418243,117.694069 304.924347,119.665131 304.967010,123.659958 
	C305.082489,134.478043 304.985229,145.298401 304.950684,156.587784 
	C304.617706,155.355438 304.053345,153.655594 304.037109,151.950516 
	C303.948608,142.652985 303.973175,133.354126 304.002106,124.055840 
	C304.024414,116.888626 304.052917,116.881760 311.110870,117.028801 
	C311.933990,117.045944 312.754425,117.191681 313.803223,117.629189 
z"/>
<path fill="#F66844" opacity="1.000000" stroke="none" 
	d="
M333.405975,155.832550 
	C333.039001,144.353516 333.026947,132.623169 333.036835,120.423401 
	C333.356110,121.143288 333.910095,122.332489 333.910706,123.521965 
	C333.916077,134.208374 333.824219,144.894821 333.405975,155.832550 
z"/>
<path fill="#F66844" opacity="1.000000" stroke="none" 
	d="
M205.033508,152.419418 
	C204.735489,152.545593 204.141510,152.210571 204.143433,151.878998 
	C204.203796,141.515213 204.322281,131.151749 204.598587,120.417564 
	C204.848648,130.684540 204.932007,141.322189 205.033508,152.419418 
z"/>
<path fill="#F66844" opacity="1.000000" stroke="none" 
	d="
M130.088470,124.472168 
	C130.278809,133.751434 130.394669,143.493652 130.334595,153.605194 
	C130.110413,144.294739 130.062195,134.614929 130.088470,124.472168 
z"/>
<path fill="#F66844" opacity="1.000000" stroke="none" 
	d="
M153.676773,117.617844 
	C146.532303,118.007805 139.237701,117.993584 131.476654,117.965149 
	C138.515671,117.705177 146.021164,117.459419 153.676773,117.617844 
z"/>
<path fill="#F76B48" opacity="1.000000" stroke="none" 
	d="
M226.170624,158.441422 
	C228.698685,157.742355 231.435486,157.392227 234.612213,157.058365 
	C232.161209,157.646545 229.270294,158.218445 226.170624,158.441422 
z"/>
<path fill="#F66844" opacity="1.000000" stroke="none" 
	d="
M264.382019,158.890701 
	C265.100830,154.995819 267.876343,156.715927 270.571777,157.004578 
	C268.881500,157.684158 266.830322,158.320801 264.382019,158.890701 
z"/>
<path fill="#F76B48" opacity="1.000000" stroke="none" 
	d="
M226.891479,122.646515 
	C225.482285,122.615631 224.137161,122.230316 222.310181,121.706970 
	C223.441071,120.289131 224.128464,119.427315 224.942627,118.288696 
	C225.698105,119.438637 226.326828,120.865364 226.891479,122.646515 
z"/>
<path fill="#F76B48" opacity="1.000000" stroke="none" 
	d="
M205.089325,157.397003 
	C207.100159,157.462906 209.285156,157.874268 211.714264,158.552048 
	C209.726730,158.459808 207.495117,158.101135 205.089325,157.397003 
z"/>
<path fill="#F76B48" opacity="1.000000" stroke="none" 
	d="
M213.623566,124.050163 
	C213.486145,125.380348 213.016357,126.869354 212.367340,128.632065 
	C212.555817,127.340172 212.923492,125.774574 213.623566,124.050163 
z"/>
<path fill="#F76B48" opacity="1.000000" stroke="none" 
	d="
M224.766113,117.610657 
	C223.226395,117.800034 221.474228,117.660599 219.391541,117.354721 
	C220.891891,117.219475 222.722778,117.250664 224.766113,117.610657 
z"/>
<path fill="#F76B48" opacity="1.000000" stroke="none" 
	d="
M219.436676,150.888947 
	C220.285416,150.652847 221.525894,150.496567 222.883667,150.549744 
	C221.943436,150.829086 220.885925,150.898941 219.436676,150.888947 
z"/>
<path fill="#F76B48" opacity="1.000000" stroke="none" 
	d="
M214.135193,121.331726 
	C214.342316,121.612366 214.467072,122.221176 214.381927,122.915184 
	C214.132294,122.553558 214.092545,122.106720 214.135193,121.331726 
z"/>
<path fill="#F66844" opacity="1.000000" stroke="none" 
	d="
M130.629089,118.136185 
	C130.795395,118.810974 130.644958,119.621567 130.338074,120.702583 
	C130.225220,120.072670 130.268784,119.172325 130.629089,118.136185 
z"/>
<path fill="#F76B48" opacity="1.000000" stroke="none" 
	d="
M217.675629,117.112526 
	C217.498642,117.405022 217.027832,117.625725 216.297394,117.882744 
	C216.485764,117.626282 216.933777,117.333504 217.675629,117.112526 
z"/>
<path fill="#F76B48" opacity="1.000000" stroke="none" 
	d="
M215.332611,156.846222 
	C215.217789,156.470291 215.370407,155.972183 215.668259,155.254791 
	C215.742355,155.598373 215.671219,156.161209 215.332611,156.846222 
z"/>
<path fill="#F76B48" opacity="1.000000" stroke="none" 
	d="
M230.056641,133.658325 
	C229.806274,133.473801 229.491470,132.990021 229.102264,132.223984 
	C229.349335,132.414169 229.670776,132.886612 230.056641,133.658325 
z"/>
<path fill="#F66844" opacity="1.000000" stroke="none" 
	d="
M262.041748,158.318893 
	C262.283325,158.220306 262.604950,158.361191 262.967499,158.660843 
	C262.712891,158.732529 262.417358,158.645447 262.041748,158.318893 
z"/>
<path fill="#F76B48" opacity="1.000000" stroke="none" 
	d="
M206.121277,150.256256 
	C206.354507,150.251053 206.388168,150.495377 206.226624,150.863373 
	C206.157211,150.973068 206.047516,150.491776 206.121277,150.256256 
z"/>
<path fill="#F76B48" opacity="1.000000" stroke="none" 
	d="
M208.694824,142.031036 
	C208.802490,142.203140 208.654083,142.431732 208.338837,142.792526 
	C208.033966,142.581985 208.122894,142.302917 208.694824,142.031036 
z"/>
<path fill="#F76B48" opacity="1.000000" stroke="none" 
	d="
M235.265289,156.995926 
	C235.161636,156.836395 235.298264,156.622757 235.597519,156.296173 
	C235.903595,156.504623 235.818741,156.757477 235.265289,156.995926 
z"/>
<path fill="#F76B48" opacity="1.000000" stroke="none" 
	d="
M228.882111,130.745392 
	C228.656967,130.760132 228.613022,130.516022 228.757736,130.139618 
	C228.822250,130.026245 228.939163,130.505447 228.882111,130.745392 
z"/>
<path fill="#F76B48" opacity="1.000000" stroke="none" 
	d="
M214.293304,157.955460 
	C214.226868,157.777267 214.418030,157.556046 214.803787,157.218628 
	C214.982925,157.438553 214.833771,157.708557 214.293304,157.955460 
z"/>
<path fill="#F76B48" opacity="1.000000" stroke="none" 
	d="
M215.673767,118.151581 
	C215.737000,118.307518 215.587494,118.481804 215.275436,118.731979 
	C215.123627,118.545624 215.239670,118.332970 215.673767,118.151581 
z"/>
<path fill="#F76B48" opacity="1.000000" stroke="none" 
	d="
M213.264008,158.852875 
	C213.213196,158.622009 213.429993,158.441727 213.844147,158.171371 
	C213.854492,158.334824 213.684525,158.608871 213.264008,158.852875 
z"/>
<path fill="#F76B48" opacity="1.000000" stroke="none" 
	d="
M220.603546,136.623993 
	C220.868896,137.642838 220.952179,138.526398 221.035461,139.409958 
	C220.604111,139.360580 220.172745,139.311203 219.741394,139.261826 
	C219.968094,138.337463 220.194778,137.413086 220.603546,136.623993 
z"/>
<path fill="#000000" opacity="1.000000" stroke="none" 
	d="
M112.135033,148.220673 
	C111.994087,140.933945 111.994087,134.064774 111.994087,127.195602 
	C112.576675,126.935860 113.159271,126.676117 113.741859,126.416382 
	C114.840805,128.154831 116.688408,129.811981 116.887817,131.648132 
	C117.348358,135.888626 116.969215,140.216293 117.008347,144.507889 
	C117.038300,147.792328 114.965523,148.537170 112.135033,148.220673 
z"/>
<path fill="#000000" opacity="1.000000" stroke="none" 
	d="
M87.008629,145.557922 
	C85.988564,147.012115 85.085808,148.244934 83.870651,148.879547 
	C83.466713,149.090500 81.569252,147.806396 81.530190,147.137207 
	C81.192390,141.349136 80.921898,135.538040 81.133896,129.752213 
	C81.179344,128.511627 83.261116,127.345673 84.404831,126.145340 
	C85.297493,127.639366 86.858002,129.089905 86.958664,130.635498 
	C87.271469,135.438675 87.030319,140.277939 87.008629,145.557922 
z"/>
<path fill="#000000" opacity="1.000000" stroke="none" 
	d="
M284.022766,129.569794 
	C285.985565,125.894882 288.127350,124.464935 291.011139,128.678436 
	C291.111115,134.306091 291.256378,139.628662 290.866547,144.911774 
	C290.761292,146.338379 289.033966,147.645309 288.051208,149.007187 
	C286.703369,147.661011 284.338379,146.415634 284.193207,144.950287 
	C283.704559,140.019241 284.006012,135.009888 284.022766,129.569794 
z"/>
</svg>