<svg version="1.1" id="Layer_1" xmlns="http://www.w3.org/2000/svg" xmlns:xlink="http://www.w3.org/1999/xlink" x="0px" y="0px"
	 width="100%" viewBox="0 0 485 104" enable-background="new 0 0 485 104" xml:space="preserve">
<path fill="#FCFCFC" opacity="1.000000" stroke="none" 
	d="
M456.000000,105.000000 
	C447.312439,105.000000 438.624878,105.000000 429.272522,104.747726 
	C428.749268,104.336258 428.890839,104.177078 429.432495,104.005585 
	C438.245270,102.472519 440.563110,97.859406 437.786194,85.865623 
	C436.062439,89.628571 435.232574,92.546021 433.543549,94.827400 
	C431.724792,97.284035 429.100891,99.144562 426.495728,101.309341 
	C425.775055,101.570465 425.386932,101.787407 424.634521,101.963135 
	C423.944305,102.186073 423.618347,102.450218 423.066711,102.416641 
	C421.466309,102.302422 420.091644,102.485924 418.579956,102.331993 
	C417.960571,101.991638 417.478149,101.988708 416.715576,101.805023 
	C416.000916,101.539146 415.566437,101.454033 414.887085,101.165947 
	C409.912994,98.929985 406.946045,95.344696 405.592529,90.443634 
	C402.840912,80.480011 402.572418,70.488724 405.907928,60.616932 
	C408.372040,53.323978 412.956909,49.768280 419.541412,49.548367 
	C427.065155,49.297085 431.628204,52.392689 434.866730,59.757191 
	C435.290771,60.721497 436.325836,61.417130 438.005585,63.248817 
	C438.005585,58.990959 437.801331,56.331486 438.050140,53.715103 
	C438.501038,48.973789 436.310120,47.477299 431.749847,48.090828 
	C431.385254,47.889328 431.225861,47.835049 430.785919,47.496685 
	C424.886475,47.289192 419.189056,46.799519 413.665741,47.565556 
	C403.566406,48.966255 396.214935,56.126217 394.049347,67.117073 
	C390.580658,84.721764 395.536011,95.245659 411.333893,103.774979 
	C411.676514,103.959961 411.783234,104.581894 412.000000,105.000000 
	C400.312439,105.000000 388.624878,105.000000 376.588989,104.656746 
	C376.141968,103.478485 376.356384,102.247597 375.889435,101.878357 
	C374.060669,100.432281 372.016785,99.258247 369.934204,97.617424 
	C375.998230,88.171021 378.143219,78.434532 374.378937,67.258492 
	C370.157379,67.462250 365.764862,67.674263 361.372345,67.886284 
	C361.340637,68.456573 361.308899,69.026863 361.277191,69.597153 
	C367.421387,70.092087 371.598938,72.935715 373.004730,79.393997 
	C372.965179,80.860008 373.001984,81.930374 372.939178,83.367798 
	C371.234589,87.345726 369.629639,90.956596 367.645599,94.595917 
	C359.256348,87.208603 352.384003,78.892860 346.867279,69.435844 
	C343.011261,62.825676 338.920319,56.374870 345.637878,48.511848 
	C343.303650,48.542458 341.318848,48.797810 339.954498,49.854347 
	C333.148560,55.124916 334.744263,62.030415 337.138977,68.802299 
	C329.831787,71.830460 326.132050,77.187660 326.109589,84.330498 
	C326.084534,92.307213 330.087372,98.456871 336.987915,102.599396 
	C338.324127,103.401535 339.662567,104.199898 341.000000,105.000000 
	C327.645782,105.000000 314.291534,105.000000 300.480682,104.748535 
	C300.015350,104.329453 300.006622,104.161850 300.122803,103.706711 
	C300.544067,102.945946 300.840454,102.472694 301.215210,101.670059 
	C304.198578,89.620155 307.103546,77.899643 309.950867,66.411880 
	C312.211273,66.104424 313.872223,65.878502 316.018677,65.586540 
	C312.458710,62.281597 302.030518,62.541142 300.009735,65.742836 
	C302.382233,65.971565 304.588013,66.184212 306.917389,66.408783 
	C304.741425,75.641510 302.639465,84.560364 300.537476,93.479210 
	C300.165619,93.547760 299.793732,93.616310 299.421875,93.684860 
	C296.835876,85.217117 294.249878,76.749374 291.625885,68.157196 
	C288.134827,67.648857 284.637787,67.313988 284.661987,72.858582 
	C284.327820,73.305107 284.245789,73.637253 284.079590,74.302979 
	C284.007141,75.091881 284.018799,75.547218 283.817963,76.317841 
	C282.045929,82.378151 280.486389,88.123177 278.539001,93.875839 
	C275.823730,84.794945 273.496368,75.706429 271.105011,66.368118 
	C273.048126,66.221909 274.524048,66.110847 276.294739,66.056602 
	C276.373932,65.222618 276.158447,64.331825 275.485443,63.367527 
	C270.036774,63.342983 265.045624,63.391933 259.747803,63.345772 
	C259.627899,64.163986 259.814667,65.077324 260.399048,66.043686 
	C262.033630,67.024918 264.086212,67.746552 264.381683,68.913223 
	C267.417725,80.900795 270.169189,92.960442 273.000000,105.000000 
	C267.645081,105.000000 262.290131,105.000000 256.609680,104.698349 
	C258.228119,104.011467 259.289734,103.699081 257.719696,101.237244 
	C255.942657,98.450806 254.237869,95.199539 253.899612,92.002480 
	C253.219635,85.576103 253.694290,79.037094 253.309570,72.567337 
	C252.907364,65.803604 247.610718,62.031830 241.372543,63.657730 
	C235.163437,62.672897 229.089920,62.028427 224.688812,67.128166 
	C223.485641,68.522316 223.196808,71.519958 223.790939,73.361481 
	C224.180267,74.568176 227.253220,75.992416 228.500961,75.552284 
	C229.917938,75.052444 231.122574,72.705635 231.572067,70.945335 
	C232.835205,65.998894 236.253418,63.083115 240.290482,64.255959 
	C244.458817,66.460930 245.480026,69.780235 246.014755,74.404457 
	C246.572861,79.230827 241.709702,78.235420 240.679932,81.121193 
	C240.011780,81.460365 239.575897,81.705650 238.705795,81.846710 
	C231.960632,81.384483 226.446747,83.780296 223.220123,88.848145 
	C219.647049,94.460121 222.693863,100.568344 230.000000,105.000000 
	C225.643097,105.000000 221.286194,105.000000 216.597626,104.620255 
	C216.063629,103.469376 216.088730,102.261864 215.613571,102.014221 
	C214.480087,101.423462 213.110519,101.285660 211.904816,100.734131 
	C211.973312,100.503349 211.871338,100.032799 211.959351,99.569366 
	C211.988693,90.728249 211.930008,82.350578 211.922150,73.738037 
	C211.972961,73.503174 211.830811,73.044083 211.893753,72.665009 
	C211.513367,67.824646 209.106979,64.002731 205.011795,63.315342 
	C198.729065,62.260773 192.182526,62.615879 186.994446,69.671806 
	C186.994446,61.821896 186.994446,55.411236 186.997711,48.586021 
	C182.520782,47.000732 178.153732,46.805550 173.985245,48.322189 
	C174.035004,48.895111 174.084747,49.468029 174.134506,50.040951 
	C175.718231,50.040951 177.301941,50.040951 179.079285,50.471737 
	C179.313171,66.531403 179.385651,82.160378 179.335983,97.788971 
	C179.331741,99.122719 178.514130,100.453896 177.709641,101.616837 
	C176.169846,101.862358 174.994751,102.277306 173.819672,102.692261 
	C173.938019,103.080284 174.056381,103.468315 174.174744,103.856339 
	C175.455795,103.856339 176.736862,103.856339 178.460999,103.932091 
	C181.596710,103.957344 184.289383,103.906837 187.410675,103.957809 
	C189.554932,104.059288 191.270554,104.059288 192.986176,104.059288 
	C193.086304,103.472832 193.186432,102.886383 193.286575,102.299927 
	C191.238052,101.811714 189.189545,101.323502 187.090149,100.856567 
	C187.039261,100.877861 187.078491,100.980957 187.103378,100.514008 
	C187.091095,92.362640 187.053925,84.678215 187.193466,76.683922 
	C188.407349,71.762398 190.418320,67.891335 195.340286,66.441032 
	C199.875671,65.104652 203.763596,67.354836 203.907654,72.004822 
	C204.209503,81.748558 203.999191,91.508171 203.999191,100.931252 
	C201.766907,102.574570 197.087830,99.625801 198.000000,105.000000 
	C183.979111,105.000000 169.958206,105.000000 155.301056,104.750313 
	C154.773911,104.332436 154.883011,104.164238 155.248657,103.991669 
	C155.666687,103.930931 155.828186,103.874565 156.354080,103.864594 
	C163.469757,102.164421 167.725815,97.990082 169.025070,91.060776 
	C170.305405,84.232361 167.725784,78.740967 162.135925,75.120377 
	C158.282089,72.624222 153.747421,71.167908 149.488968,69.311195 
	C145.846420,67.723015 142.741104,65.711571 142.014389,61.371006 
	C141.238571,56.737072 143.399460,51.459167 146.664993,50.202290 
	C151.749924,48.245148 159.015396,50.864540 161.807983,55.830013 
	C162.907455,57.784969 163.616852,59.959301 164.503891,62.033733 
	C164.789673,62.012859 165.075455,61.991985 165.361237,61.971111 
	C165.361237,57.695194 165.361237,53.419273 165.361237,47.868324 
	C159.033386,47.868324 152.515106,47.724525 146.006516,47.913773 
	C140.789352,48.065468 136.233810,51.827385 134.566360,56.853615 
	C132.647659,62.637207 133.860565,68.899864 138.462936,71.965591 
	C143.345657,75.218079 148.736832,77.735931 154.008240,80.369873 
	C163.070221,84.897842 164.209641,94.945786 155.851410,101.340897 
	C142.858444,105.636940 138.669144,96.211563 133.356277,87.907661 
	C133.207397,92.570305 133.159180,97.138458 134.331894,101.368080 
	C134.778488,102.978752 138.027954,103.812286 140.000000,105.000000 
	C130.979111,105.000000 121.958214,105.000000 112.473129,104.731186 
	C111.994415,104.283714 111.979889,104.105064 111.993149,103.689224 
	C112.020950,103.452019 111.870567,102.998665 111.940910,102.581528 
	C112.706131,97.211601 113.401009,92.258820 114.095886,87.306046 
	C109.982445,91.570076 107.753044,97.128075 103.680313,99.442917 
	C99.409828,101.870171 93.371056,101.186317 88.096832,101.863243 
	C88.096832,92.368408 88.096832,83.981674 88.096832,75.159645 
	C92.957848,76.390076 98.332535,74.550377 101.176788,80.393761 
	C101.746353,81.935074 102.306473,83.098122 102.866592,84.261177 
	C103.176605,84.161858 103.486626,84.062538 103.796646,83.963219 
	C103.796646,77.305679 103.796646,70.648132 103.796646,63.990589 
	C103.395981,63.927280 102.995316,63.863968 102.594650,63.800655 
	C102.122192,65.195061 101.649727,66.589462 101.052612,68.333145 
	C97.520561,73.917297 92.449211,72.985954 86.539711,72.427879 
	C87.033394,64.836464 87.517487,57.392467 88.458771,50.043201 
	C93.575127,50.241177 98.234299,50.344421 103.148651,50.653992 
	C105.363449,53.251453 107.323082,55.642590 109.280243,58.299820 
	C109.503197,59.047779 109.728638,59.529640 109.890472,60.352318 
	C110.221573,61.118225 110.616272,61.543320 111.380325,61.982216 
	C111.930885,60.682140 112.112099,59.368267 112.457413,57.649223 
	C112.529465,54.465488 112.437408,51.686920 112.312637,48.529015 
	C111.822960,48.026714 111.366005,47.903751 110.491142,47.637051 
	C107.730408,47.592659 105.387581,47.692005 102.584778,47.685966 
	C97.065979,47.658009 92.007133,47.735432 86.527290,47.668041 
	C83.746368,47.619762 81.386459,47.716293 78.577026,47.698006 
	C76.040192,47.680328 73.952873,47.777470 71.865555,47.874607 
	C71.902519,48.617516 71.939484,49.360424 71.976448,50.103333 
	C74.307167,50.103333 76.637878,50.103333 79.019814,50.563099 
	C79.054893,67.696983 79.038750,84.371109 78.602432,101.119408 
	C76.187599,101.810135 74.192924,102.426682 72.095078,103.248405 
	C71.991905,103.453583 72.043274,103.910011 72.026398,104.182266 
	C72.006348,104.636353 72.003174,104.818176 72.000000,105.000000 
	C58.979107,105.000000 45.958210,105.000000 32.468643,104.620636 
	C32.004650,103.481812 32.009331,102.722359 32.390053,102.114777 
	C39.324051,105.890808 50.071251,97.062729 53.120987,91.722160 
	C56.588989,85.649147 55.691368,79.094841 56.101906,72.607246 
	C56.535706,65.752083 53.835766,60.335979 49.574963,55.432751 
	C44.148876,49.188545 36.478237,48.378784 29.054188,47.844418 
	C21.783897,47.321121 14.435099,47.862137 7.121935,47.998875 
	C6.328798,48.013702 5.543456,48.445343 4.754498,48.683647 
	C4.773236,49.060303 4.791975,49.436958 4.810713,49.813610 
	C7.096632,49.985821 9.382552,50.158028 12.118625,50.364147 
	C12.118625,67.131119 12.118625,83.578758 12.060430,100.267517 
	C12.002234,100.508652 12.024214,101.004265 11.647502,101.174255 
	C9.223025,101.813469 7.175261,102.282707 5.061858,103.122841 
	C4.997479,103.995827 4.998740,104.497910 5.000000,105.000000 
	C3.667873,105.000000 2.335746,105.000000 1.002714,105.000000 
	C1.001809,70.365898 1.001809,35.731796 1.001809,1.000000 
	C126.020874,1.000000 251.041779,1.000000 376.436249,1.349340 
	C356.954773,10.034357 337.095917,18.361055 317.256439,26.733606 
	C316.317535,27.129837 315.550323,27.932966 314.506500,28.988476 
	C314.860352,29.572376 315.410889,29.714401 316.323486,29.847397 
	C336.455261,21.551023 356.243958,13.308036 375.952332,4.877388 
	C377.278442,4.310120 377.998230,2.325444 379.000000,1.000001 
	C414.597534,1.000000 450.195099,1.000000 485.896301,1.000000 
	C485.896301,35.666477 485.896301,70.333191 485.903107,104.999954 
	C480.586914,105.000000 475.263916,105.000000 469.421448,104.760262 
	C468.901978,104.520523 469.083618,104.066086 469.455261,104.033539 
	C475.729614,103.034721 479.523682,99.470406 480.743408,93.822998 
	C481.712585,89.335693 482.016510,84.632271 482.021393,80.024170 
	C482.031586,70.390381 475.032440,62.414753 464.678864,62.559883 
	C462.613312,62.527542 460.814941,62.732288 458.633759,62.949196 
	C449.335297,65.321274 445.942535,69.321907 444.876221,78.425842 
	C443.590546,89.402222 444.999573,99.193321 456.000000,105.000000 
M441.500061,27.826303 
	C423.668060,27.826303 405.836029,27.826303 388.004028,27.826303 
	C388.018799,28.384848 388.033539,28.943390 388.048309,29.501934 
	C418.543976,29.501934 449.039673,29.501934 479.535339,29.501934 
	C479.540710,28.943390 479.546082,28.384846 479.551453,27.826302 
	C467.200989,27.826302 454.850555,27.826302 441.500061,27.826303 
M355.569550,50.729313 
	C358.049469,54.447128 360.529388,58.164940 363.009308,61.882755 
	C363.502228,61.765388 363.995148,61.648022 364.488068,61.530655 
	C363.890259,57.257305 364.336304,52.401344 362.375732,48.888592 
	C360.703735,45.892937 355.392456,46.560658 351.750885,48.879807 
	C352.947327,49.407909 353.948059,49.849644 355.569550,50.729313 
M6.869977,28.006918 
	C6.240078,28.312929 5.610178,28.618940 4.980279,28.924952 
	C5.348821,29.352772 5.717362,29.780590 6.085903,30.208410 
	C6.655524,29.655107 7.225144,29.101805 6.869977,28.006918 
z"/>
<path fill="#F9F9F9" opacity="1.000000" stroke="none" 
	d="
M32.014011,101.962898 
	C32.009331,102.722359 32.004650,103.481812 31.999985,104.620636 
	C31.555664,105.000000 31.111328,105.000000 30.257116,104.605530 
	C26.861740,103.798630 23.876240,103.386192 20.914288,102.699463 
	C20.655115,101.957001 20.372393,101.488823 20.191942,100.760223 
	C20.235529,100.322754 20.176844,100.145706 20.251015,99.518188 
	C20.295206,83.387466 20.206541,67.707222 20.208946,51.762398 
	C20.246077,51.319244 20.192141,51.140671 20.437649,50.686531 
	C23.716335,50.356659 26.724777,50.008686 29.669498,50.301502 
	C39.666416,51.295582 44.521278,55.109093 46.022079,64.894127 
	C47.143101,72.203033 47.507729,79.899071 46.449982,87.166687 
	C45.840973,91.351097 42.088943,95.339409 39.049969,98.799728 
	C37.505939,100.557838 34.408955,100.952087 32.014011,101.962898 
z"/>
<path fill="#211B1D" opacity="1.000000" stroke="none" 
	d="
M178.074356,101.786263 
	C178.514130,100.453896 179.331741,99.122719 179.335983,97.788971 
	C179.385651,82.160378 179.313171,66.531403 179.483673,50.424191 
	C182.127762,49.630764 184.561111,49.315670 186.994446,49.000572 
	C186.994446,55.411236 186.994446,61.821896 186.994446,69.671806 
	C192.182526,62.615879 198.729065,62.260773 205.011795,63.315342 
	C209.106979,64.002731 211.513367,67.824646 211.745514,72.754860 
	C211.646667,73.473488 211.758987,73.723198 211.871323,73.972900 
	C211.930008,82.350578 211.988693,90.728249 211.801346,99.642342 
	C211.497437,100.278496 211.366165,100.427330 211.394363,100.469467 
	C211.516235,100.651642 211.684753,100.802605 211.836304,100.964920 
	C213.110519,101.285660 214.480087,101.423462 215.613571,102.014221 
	C216.088730,102.261864 216.063629,103.469376 216.132980,104.620255 
	C210.311966,105.000000 204.623917,105.000000 198.467941,105.000000 
	C197.087830,99.625801 201.766907,102.574570 203.999191,100.931252 
	C203.999191,91.508171 204.209503,81.748558 203.907654,72.004822 
	C203.763596,67.354836 199.875671,65.104652 195.340286,66.441032 
	C190.418320,67.891335 188.407349,71.762398 186.887970,76.970985 
	C186.272614,81.686974 185.954361,85.810844 186.061401,89.923637 
	C186.157501,93.615738 186.721115,97.295662 187.078491,100.980957 
	C187.078491,100.980957 187.039261,100.877861 187.022064,101.229935 
	C186.997253,102.340111 186.989655,103.098228 186.982056,103.856339 
	C184.289383,103.906837 181.596710,103.957344 178.463409,103.673157 
	C178.039978,102.821075 178.057175,102.303665 178.074356,101.786263 
z"/>
<path fill="#242021" opacity="1.000000" stroke="none" 
	d="
M370.052826,97.983131 
	C372.016785,99.258247 374.060669,100.432281 375.889435,101.878357 
	C376.356384,102.247597 376.141968,103.478485 376.120300,104.656746 
	C374.611115,105.000000 373.222198,105.000000 371.296143,104.644653 
	C365.351959,101.110977 360.096710,101.297699 355.000000,105.000000 
	C354.555542,105.000000 354.111115,105.000000 353.083984,104.687675 
	C350.308105,104.315453 348.114960,104.255554 345.578369,104.128571 
	C344.489990,104.374329 343.744995,104.687164 343.000000,105.000000 
	C342.555542,105.000000 342.111115,105.000000 341.333313,105.000000 
	C339.662567,104.199898 338.324127,103.401535 336.987915,102.599396 
	C330.087372,98.456871 326.084534,92.307213 326.109589,84.330498 
	C326.132050,77.187660 329.831787,71.830460 337.138977,68.802299 
	C334.744263,62.030415 333.148560,55.124916 339.954498,49.854347 
	C341.318848,48.797810 343.303650,48.542458 345.637878,48.511848 
	C338.920319,56.374870 343.011261,62.825676 346.867279,69.435844 
	C352.384003,78.892860 359.256348,87.208603 367.647461,94.933403 
	C368.703217,96.155991 369.378021,97.069557 370.052826,97.983131 
M342.576630,99.002914 
	C348.330719,102.729340 354.279846,102.109756 360.085754,100.260948 
	C352.301178,90.359947 344.662445,80.644417 337.022858,70.927795 
	C329.990692,78.941734 332.244415,91.281166 342.576630,99.002914 
z"/>
<path fill="#FAFAFA" opacity="1.000000" stroke="none" 
	d="
M459.016602,62.937035 
	C460.814941,62.732288 462.613312,62.527542 464.662354,62.922062 
	C467.015472,65.574089 469.614349,67.315857 471.130371,69.735970 
	C476.379547,78.115585 474.452484,93.766167 467.716278,101.312393 
	C467.049622,102.059174 467.054016,103.405006 466.718323,104.648712 
	C466.689636,104.824631 467.000000,105.000000 467.000000,105.000000 
	C464.629425,105.000000 462.258881,105.000000 459.633362,104.928169 
	C459.378418,104.856339 459.449341,104.457825 459.479126,104.036247 
	C459.198303,102.739685 459.119202,101.653473 458.542419,101.021362 
	C449.748108,91.383675 450.726715,72.880051 460.519928,64.744652 
	C460.017151,64.143486 459.516876,63.540260 459.016602,62.937035 
z"/>
<path fill="#2A2627" opacity="1.000000" stroke="none" 
	d="
M431.955078,48.238052 
	C436.310120,47.477299 438.501038,48.973789 438.050140,53.715103 
	C437.801331,56.331486 438.005585,58.990959 438.005585,63.248817 
	C436.325836,61.417130 435.290771,60.721497 434.866730,59.757191 
	C431.628204,52.392689 427.065155,49.297085 419.541412,49.548367 
	C412.956909,49.768280 408.372040,53.323978 405.907928,60.616932 
	C402.572418,70.488724 402.840912,80.480011 405.592529,90.443634 
	C406.946045,95.344696 409.912994,98.929985 414.863586,101.562935 
	C415.082855,102.691811 415.080780,103.220718 414.794556,103.860252 
	C414.340271,104.313919 414.170135,104.656960 414.000000,105.000000 
	C413.555542,105.000000 413.111115,105.000000 412.333313,105.000000 
	C411.783234,104.581894 411.676514,103.959961 411.333893,103.774979 
	C395.536011,95.245659 390.580658,84.721764 394.049347,67.117073 
	C396.214935,56.126217 403.566406,48.966255 413.665741,47.565556 
	C419.189056,46.799519 424.886475,47.289192 430.809387,47.686211 
	C431.393951,48.185894 431.674530,48.211971 431.955078,48.238052 
z"/>
<path fill="#231E20" opacity="1.000000" stroke="none" 
	d="
M241.643463,63.867393 
	C247.610718,62.031830 252.907364,65.803604 253.309570,72.567337 
	C253.694290,79.037094 253.219635,85.576103 253.899612,92.002480 
	C254.237869,95.199539 255.942657,98.450806 257.719696,101.237244 
	C259.289734,103.699081 258.228119,104.011467 256.142090,104.698349 
	C254.933334,105.000000 253.866653,105.000000 252.373276,104.656036 
	C250.212372,102.654106 248.478180,100.996147 246.816833,99.407829 
	C244.174286,101.298309 241.587143,103.149155 239.000000,105.000000 
	C236.299988,105.000000 233.599976,105.000000 230.449982,105.000000 
	C222.693863,100.568344 219.647049,94.460121 223.220123,88.848145 
	C226.446747,83.780296 231.960632,81.384483 238.640030,82.206360 
	C237.602341,83.464928 236.187012,84.243881 234.791946,85.057587 
	C231.795059,86.805595 229.970978,92.723526 231.349487,96.538239 
	C232.835831,100.651352 236.038467,101.812683 239.988968,100.919754 
	C244.078644,99.995384 245.800262,96.986420 245.895065,92.995308 
	C245.981522,89.354927 245.913391,85.710876 245.913391,82.241447 
	C244.172272,81.818748 242.542236,81.423027 240.912216,81.027298 
	C241.709702,78.235420 246.572861,79.230827 246.014755,74.404457 
	C245.480026,69.780235 244.458817,66.460930 240.439224,64.303436 
	C240.752914,64.030838 241.216690,64.037422 241.216690,64.037422 
	C241.216690,64.037422 241.643463,63.867393 241.643463,63.867393 
z"/>
<path fill="#2A2627" opacity="1.000000" stroke="none" 
	d="
M276.000000,65.999786 
	C274.524048,66.110847 273.048126,66.221909 271.105011,66.368118 
	C273.496368,75.706429 275.823730,84.794945 278.681549,94.157837 
	C279.490143,94.998848 279.768311,95.565498 280.073181,96.534180 
	C279.066589,99.624138 278.033295,102.312065 277.000000,105.000000 
	C275.933319,105.000000 274.866669,105.000000 273.400024,105.000000 
	C270.169189,92.960442 267.417725,80.900795 264.381683,68.913223 
	C264.086212,67.746552 262.033630,67.024918 260.352722,65.726135 
	C259.957336,64.717339 260.005920,64.079109 260.054504,63.440887 
	C265.045624,63.391933 270.036774,63.342983 275.517334,63.687935 
	C276.004486,64.721153 276.002228,65.360474 276.000000,65.999786 
z"/>
<path fill="#2A2627" opacity="1.000000" stroke="none" 
	d="
M458.633759,62.949200 
	C459.516876,63.540260 460.017151,64.143486 460.519928,64.744652 
	C450.726715,72.880051 449.748108,91.383675 458.542419,101.021362 
	C459.119202,101.653473 459.198303,102.739685 459.179962,103.860435 
	C458.567322,104.404129 458.283661,104.702057 458.000000,104.999992 
	C457.555542,105.000000 457.111115,105.000000 456.333313,105.000000 
	C444.999573,99.193321 443.590546,89.402222 444.876221,78.425842 
	C445.942535,69.321907 449.335297,65.321274 458.633759,62.949200 
z"/>
<path fill="#F6F6F6" opacity="1.000000" stroke="none" 
	d="
M277.468262,105.000000 
	C278.033295,102.312065 279.066589,99.624138 280.428772,96.378624 
	C282.518677,89.572723 284.279694,83.324417 286.409119,76.864975 
	C287.482513,78.351723 288.308380,80.010559 288.871521,81.754250 
	C291.282379,89.219116 293.615845,96.708977 295.981689,104.392334 
	C295.985840,104.594948 296.000000,105.000000 296.000000,105.000000 
	C289.978851,105.000000 283.957703,105.000000 277.468262,105.000000 
z"/>
<path fill="#211B1D" opacity="1.000000" stroke="none" 
	d="
M314.703156,28.546598 
	C315.550323,27.932966 316.317535,27.129837 317.256439,26.733606 
	C337.095917,18.361055 356.954773,10.034357 376.904907,1.349340 
	C377.444458,1.000000 377.888885,1.000000 378.666687,1.000001 
	C377.998230,2.325444 377.278442,4.310120 375.952332,4.877388 
	C356.243958,13.308036 336.455261,21.551023 316.159637,29.590595 
	C315.323517,29.077414 315.013336,28.812006 314.703156,28.546598 
z"/>
<path fill="#1C1819" opacity="1.000000" stroke="none" 
	d="
M155.989685,103.818199 
	C155.828186,103.874565 155.666687,103.930931 154.798218,103.936646 
	C151.360123,103.962189 148.628998,104.038361 145.521545,104.083725 
	C144.096802,104.368607 143.048401,104.684303 142.000000,105.000000 
	C141.555557,105.000000 141.111099,105.000000 140.333328,105.000000 
	C138.027954,103.812286 134.778488,102.978752 134.331894,101.368080 
	C133.159180,97.138458 133.207397,92.570305 133.356277,87.907661 
	C138.669144,96.211563 142.858444,105.636940 155.767395,101.766739 
	C156.067505,102.663834 156.028595,103.241020 155.989685,103.818199 
z"/>
<path fill="#E1E0E1" opacity="1.000000" stroke="none" 
	d="
M20.890739,102.973755 
	C23.876240,103.386192 26.861740,103.798630 29.923620,104.605530 
	C21.979099,105.000000 13.958199,105.000000 5.468649,105.000000 
	C4.998740,104.497910 4.997479,103.995827 5.494449,103.003693 
	C7.570904,102.669884 9.147081,102.929726 10.727776,102.960953 
	C14.114193,103.027840 17.502943,102.976608 20.890739,102.973755 
z"/>
<path fill="#E1E0E1" opacity="1.000000" stroke="none" 
	d="
M111.965355,103.926422 
	C111.979889,104.105064 111.994415,104.283714 112.004471,104.731186 
	C98.979103,105.000000 85.958214,105.000000 72.468658,105.000000 
	C72.003174,104.818176 72.006348,104.636353 72.459824,104.226776 
	C74.939064,103.935051 76.968010,103.871078 79.461838,103.871231 
	C90.283028,103.892609 100.639328,103.849869 111.231613,103.889389 
	C111.467598,103.971664 111.965355,103.926422 111.965355,103.926422 
z"/>
<path fill="#E1E0E1" opacity="1.000000" stroke="none" 
	d="
M239.463181,105.000000 
	C241.587143,103.149155 244.174286,101.298309 246.816833,99.407829 
	C248.478180,100.996147 250.212372,102.654106 251.973282,104.656036 
	C247.975449,105.000000 243.950912,105.000000 239.463181,105.000000 
z"/>
<path fill="#F6F6F6" opacity="1.000000" stroke="none" 
	d="
M355.466858,105.000000 
	C360.096710,101.297699 365.351959,101.110977 370.879486,104.644653 
	C365.977905,105.000000 360.955811,105.000000 355.466858,105.000000 
z"/>
<path fill="#575556" opacity="1.000000" stroke="none" 
	d="
M414.466125,105.000000 
	C414.170135,104.656960 414.340271,104.313919 415.247803,103.891983 
	C419.626862,103.796822 423.268524,103.780556 427.263916,103.808517 
	C428.089294,103.907791 428.560852,103.962837 429.032440,104.017891 
	C428.890839,104.177078 428.749268,104.336258 428.803864,104.747726 
	C424.310760,105.000000 419.621490,105.000000 414.466125,105.000000 
z"/>
<path fill="#423F3F" opacity="1.000000" stroke="none" 
	d="
M145.897873,104.114540 
	C148.628998,104.038361 151.360123,103.962189 154.541687,103.941025 
	C154.883011,104.164238 154.773911,104.332436 154.832397,104.750313 
	C152.299957,105.000000 149.599899,105.000000 146.433289,104.777603 
	C145.966721,104.555214 145.897873,104.114540 145.897873,104.114540 
z"/>
<path fill="#575556" opacity="1.000000" stroke="none" 
	d="
M345.921783,104.195656 
	C348.114960,104.255554 350.308105,104.315453 352.750641,104.687675 
	C350.958344,105.000000 348.916656,105.000000 346.421234,104.798592 
	C345.967468,104.597183 345.921783,104.195656 345.921783,104.195656 
z"/>
<path fill="#706E6F" opacity="1.000000" stroke="none" 
	d="
M145.521545,104.083725 
	C145.897873,104.114540 145.966721,104.555214 145.983368,104.777603 
	C144.933365,105.000000 143.866714,105.000000 142.400040,105.000000 
	C143.048401,104.684303 144.096802,104.368607 145.521545,104.083725 
z"/>
<path fill="#E1E0E1" opacity="1.000000" stroke="none" 
	d="
M296.399811,105.000000 
	C296.000000,105.000000 295.985840,104.594948 296.315033,104.308716 
	C297.096558,103.960106 297.548920,103.897736 298.328613,103.909088 
	C299.103271,103.986626 299.550568,103.990433 299.997894,103.994240 
	C300.006622,104.161850 300.015350,104.329453 300.012024,104.748535 
	C298.933197,105.000000 297.866425,105.000000 296.399811,105.000000 
z"/>
<path fill="#706E6F" opacity="1.000000" stroke="none" 
	d="
M345.578369,104.128571 
	C345.921783,104.195656 345.967468,104.597183 345.983734,104.798592 
	C345.250000,105.000000 344.500000,105.000000 343.375000,105.000000 
	C343.744995,104.687164 344.489990,104.374329 345.578369,104.128571 
z"/>
<path fill="#706E6F" opacity="1.000000" stroke="none" 
	d="
M467.333313,105.000000 
	C467.000000,105.000000 466.689636,104.824631 467.076599,104.451462 
	C468.003571,104.074219 468.543579,104.070152 469.083618,104.066086 
	C469.083618,104.066086 468.901978,104.520523 468.950989,104.760262 
	C468.555542,105.000000 468.111115,105.000000 467.333313,105.000000 
z"/>
<path fill="#706E6F" opacity="1.000000" stroke="none" 
	d="
M458.250000,104.999992 
	C458.283661,104.702057 458.567322,104.404129 459.150177,104.282013 
	C459.449341,104.457825 459.378418,104.856339 459.189209,104.928169 
	C459.000000,105.000000 458.500000,105.000000 458.250000,104.999992 
z"/>
<path fill="#221D1F" opacity="1.000000" stroke="none" 
	d="
M20.914288,102.699463 
	C17.502943,102.976608 14.114193,103.027840 10.727776,102.960953 
	C9.147081,102.929726 7.570904,102.669884 5.560088,102.632797 
	C7.175261,102.282707 9.223025,101.813469 11.808848,101.083511 
	C12.424902,100.728836 12.586473,100.578262 12.567389,100.550095 
	C12.439249,100.361000 12.272715,100.197906 12.118626,100.026390 
	C12.118625,83.578758 12.118625,67.131119 12.118625,50.364147 
	C9.382552,50.158028 7.096632,49.985821 4.810713,49.813610 
	C4.791975,49.436958 4.773236,49.060303 4.754498,48.683647 
	C5.543456,48.445343 6.328798,48.013702 7.121935,47.998875 
	C14.435099,47.862137 21.783897,47.321121 29.054188,47.844418 
	C36.478237,48.378784 44.148876,49.188545 49.574963,55.432751 
	C53.835766,60.335979 56.535706,65.752083 56.101906,72.607246 
	C55.691368,79.094841 56.588989,85.649147 53.120987,91.722160 
	C50.071251,97.062729 39.324051,105.890808 32.390053,102.114777 
	C34.408955,100.952087 37.505939,100.557838 39.049969,98.799728 
	C42.088943,95.339409 45.840973,91.351097 46.449982,87.166687 
	C47.507729,79.899071 47.143101,72.203033 46.022079,64.894127 
	C44.521278,55.109093 39.666416,51.295582 29.669498,50.301502 
	C26.724777,50.008686 23.716335,50.356659 20.259296,50.787621 
	C19.701105,51.272591 19.534073,51.454201 19.553949,51.477703 
	C19.722631,51.677113 19.925362,51.847725 20.117876,52.026974 
	C20.206541,67.707222 20.295206,83.387466 20.074429,99.614868 
	C19.686264,100.268661 19.521580,100.445160 19.542459,100.470856 
	C19.704702,100.670502 19.902719,100.841080 20.089672,101.020645 
	C20.372393,101.488823 20.655115,101.957001 20.914288,102.699463 
z"/>
<path fill="#221D1F" opacity="1.000000" stroke="none" 
	d="
M110.995636,103.807121 
	C100.639328,103.849869 90.283028,103.892609 79.361557,103.671310 
	C78.590080,103.020615 78.383766,102.633972 78.406540,102.114433 
	C78.764626,101.669441 78.893616,101.357330 79.022606,101.045227 
	C79.038750,84.371109 79.054893,67.696983 79.036743,50.181549 
	C79.010483,48.831097 79.018517,48.321960 79.026550,47.812824 
	C81.386459,47.716293 83.746368,47.619762 86.631439,47.947571 
	C87.438255,48.897430 87.719917,49.422951 88.001587,49.948471 
	C87.517487,57.392467 87.033394,64.836464 86.539711,72.427879 
	C92.449211,72.985954 97.520561,73.917297 101.431015,68.441238 
	C103.227531,72.239052 104.637146,76.285591 101.167343,80.015503 
	C98.332535,74.550377 92.957848,76.390076 88.096832,75.159645 
	C88.096832,83.981674 88.096832,92.368408 88.096832,101.863243 
	C93.371056,101.186317 99.409828,101.870171 103.680313,99.442917 
	C107.753044,97.128075 109.982445,91.570076 114.095886,87.306046 
	C113.401009,92.258820 112.706131,97.211601 111.759476,102.674828 
	C111.271179,103.338348 111.100494,103.545631 110.995636,103.807121 
z"/>
<path fill="#262223" opacity="1.000000" stroke="none" 
	d="
M156.354080,103.864594 
	C156.028595,103.241020 156.067505,102.663834 156.190430,101.660812 
	C164.209641,94.945786 163.070221,84.897842 154.008240,80.369873 
	C148.736832,77.735931 143.345657,75.218079 138.462936,71.965591 
	C133.860565,68.899864 132.647659,62.637207 134.566360,56.853615 
	C136.233810,51.827385 140.789352,48.065468 146.006516,47.913773 
	C152.515106,47.724525 159.033386,47.868324 165.361237,47.868324 
	C165.361237,53.419273 165.361237,57.695194 165.361237,61.971111 
	C165.075455,61.991985 164.789673,62.012859 164.503891,62.033733 
	C163.616852,59.959301 162.907455,57.784969 161.807983,55.830013 
	C159.015396,50.864540 151.749924,48.245148 146.664993,50.202290 
	C143.399460,51.459167 141.238571,56.737072 142.014389,61.371006 
	C142.741104,65.711571 145.846420,67.723015 149.488968,69.311195 
	C153.747421,71.167908 158.282089,72.624222 162.135925,75.120377 
	C167.725784,78.740967 170.305405,84.232361 169.025070,91.060776 
	C167.725815,97.990082 163.469757,102.164421 156.354080,103.864594 
z"/>
<path fill="#231E20" opacity="1.000000" stroke="none" 
	d="
M298.001251,103.835358 
	C297.548920,103.897736 297.096558,103.960106 296.310852,104.106102 
	C293.615845,96.708977 291.282379,89.219116 288.871521,81.754250 
	C288.308380,80.010559 287.482513,78.351723 286.235535,76.616982 
	C285.139191,76.387596 284.584839,76.195076 284.030457,76.002548 
	C284.018799,75.547218 284.007141,75.091881 284.276520,74.150696 
	C284.758453,73.389732 284.877289,73.082855 284.914124,72.744202 
	C284.637787,67.313988 288.134827,67.648857 291.625885,68.157196 
	C294.249878,76.749374 296.835876,85.217117 299.421875,93.684860 
	C299.793732,93.616310 300.165619,93.547760 300.537476,93.479210 
	C302.639465,84.560364 304.741425,75.641510 306.917389,66.408783 
	C304.588013,66.184212 302.382233,65.971565 300.009735,65.742836 
	C302.030518,62.541142 312.458710,62.281597 316.018677,65.586540 
	C313.872223,65.878502 312.211273,66.104424 309.950867,66.411880 
	C307.103546,77.899643 304.198578,89.620155 300.862274,101.673004 
	C299.621063,102.615349 298.811157,103.225357 298.001251,103.835358 
z"/>
<path fill="#282425" opacity="1.000000" stroke="none" 
	d="
M469.455261,104.033539 
	C468.543579,104.070152 468.003571,104.074219 467.105255,104.275543 
	C467.054016,103.405006 467.049622,102.059174 467.716278,101.312393 
	C474.452484,93.766167 476.379547,78.115585 471.130371,69.735970 
	C469.614349,67.315857 467.015472,65.574089 464.929565,63.159142 
	C475.032440,62.414753 482.031586,70.390381 482.021393,80.024170 
	C482.016510,84.632271 481.712585,89.335693 480.743408,93.822998 
	C479.523682,99.470406 475.729614,103.034721 469.455261,104.033539 
z"/>
<path fill="#F7F7F7" opacity="1.000000" stroke="none" 
	d="
M240.679932,81.121193 
	C242.542236,81.423027 244.172272,81.818748 245.913391,82.241447 
	C245.913391,85.710876 245.981522,89.354927 245.895065,92.995308 
	C245.800262,96.986420 244.078644,99.995384 239.988968,100.919754 
	C236.038467,101.812683 232.835831,100.651352 231.349487,96.538239 
	C229.970978,92.723526 231.795059,86.805595 234.791946,85.057587 
	C236.187012,84.243881 237.602341,83.464928 239.074249,82.310577 
	C239.575897,81.705650 240.011780,81.460365 240.679932,81.121193 
z"/>
<path fill="#050101" opacity="1.000000" stroke="none" 
	d="
M442.000092,27.826302 
	C454.850555,27.826302 467.200989,27.826302 479.551453,27.826302 
	C479.546082,28.384846 479.540710,28.943390 479.535339,29.501934 
	C449.039673,29.501934 418.543976,29.501934 388.048309,29.501934 
	C388.033539,28.943390 388.018799,28.384848 388.004028,27.826303 
	C405.836029,27.826303 423.668060,27.826303 442.000092,27.826302 
z"/>
<path fill="#1C1819" opacity="1.000000" stroke="none" 
	d="
M369.934204,97.617424 
	C369.378021,97.069557 368.703217,96.155991 368.026550,94.904938 
	C369.629639,90.956596 371.234589,87.345726 373.278809,83.303192 
	C375.619232,81.232918 375.752899,79.884964 373.081116,78.998360 
	C371.598938,72.935715 367.421387,70.092087 361.277191,69.597153 
	C361.308899,69.026863 361.340637,68.456573 361.372345,67.886284 
	C365.764862,67.674263 370.157379,67.462250 374.378937,67.258492 
	C378.143219,78.434532 375.998230,88.171021 369.934204,97.617424 
z"/>
<path fill="#2C2829" opacity="1.000000" stroke="none" 
	d="
M241.372543,63.657730 
	C241.643463,63.867393 241.216690,64.037422 241.216690,64.037422 
	C241.216690,64.037422 240.752914,64.030838 240.604172,63.983360 
	C236.253418,63.083115 232.835205,65.998894 231.572067,70.945335 
	C231.122574,72.705635 229.917938,75.052444 228.500961,75.552284 
	C227.253220,75.992416 224.180267,74.568176 223.790939,73.361481 
	C223.196808,71.519958 223.485641,68.522316 224.688812,67.128166 
	C229.089920,62.028427 235.163437,62.672897 241.372543,63.657730 
z"/>
<path fill="#2C2829" opacity="1.000000" stroke="none" 
	d="
M429.432495,104.005585 
	C428.560852,103.962837 428.089294,103.907791 427.288361,103.392120 
	C426.915405,102.376045 426.871826,101.820595 426.828247,101.265152 
	C429.100891,99.144562 431.724792,97.284035 433.543549,94.827400 
	C435.232574,92.546021 436.062439,89.628571 437.786194,85.865623 
	C440.563110,97.859406 438.245270,102.472519 429.432495,104.005585 
z"/>
<path fill="#2A2627" opacity="1.000000" stroke="none" 
	d="
M355.259155,50.510345 
	C353.948059,49.849644 352.947327,49.407909 351.750885,48.879807 
	C355.392456,46.560658 360.703735,45.892937 362.375732,48.888592 
	C364.336304,52.401344 363.890259,57.257305 364.488068,61.530655 
	C363.995148,61.648022 363.502228,61.765388 363.009308,61.882755 
	C360.529388,58.164940 358.049469,54.447128 355.259155,50.510345 
z"/>
<path fill="#2A2627" opacity="1.000000" stroke="none" 
	d="
M109.282715,58.033726 
	C107.323082,55.642590 105.363449,53.251453 103.181252,50.211590 
	C102.987373,48.972359 103.016060,48.381851 103.044746,47.791348 
	C105.387581,47.692005 107.730408,47.592659 110.647369,47.916580 
	C111.596107,48.529350 111.970726,48.718853 112.345345,48.908356 
	C112.437408,51.686920 112.529465,54.465488 112.156113,57.650566 
	C110.888031,58.049297 110.085373,58.041512 109.282715,58.033726 
z"/>
<path fill="#171213" opacity="1.000000" stroke="none" 
	d="
M283.817963,76.317841 
	C284.584839,76.195076 285.139191,76.387596 285.867126,76.828110 
	C284.279694,83.324417 282.518677,89.572723 280.402039,95.976593 
	C279.768311,95.565498 279.490143,94.998848 279.069458,94.150200 
	C280.486389,88.123177 282.045929,82.378151 283.817963,76.317841 
z"/>
<path fill="#10090B" opacity="1.000000" stroke="none" 
	d="
M101.176788,80.393761 
	C104.637146,76.285591 103.227531,72.239052 101.555672,68.091949 
	C101.649727,66.589462 102.122192,65.195061 102.594650,63.800655 
	C102.995316,63.863968 103.395981,63.927280 103.796646,63.990589 
	C103.796646,70.648132 103.796646,77.305679 103.796646,83.963219 
	C103.486626,84.062538 103.176605,84.161858 102.866592,84.261177 
	C102.306473,83.098122 101.746353,81.935074 101.176788,80.393761 
z"/>
<path fill="#282425" opacity="1.000000" stroke="none" 
	d="
M186.997711,48.586021 
	C184.561111,49.315670 182.127762,49.630764 179.290039,49.993404 
	C177.301941,50.040951 175.718231,50.040951 174.134506,50.040951 
	C174.084747,49.468029 174.035004,48.895111 173.985245,48.322189 
	C178.153732,46.805550 182.520782,47.000732 186.997711,48.586021 
z"/>
<path fill="#10090B" opacity="1.000000" stroke="none" 
	d="
M102.584778,47.685966 
	C103.016060,48.381851 102.987373,48.972359 102.926086,50.005264 
	C98.234299,50.344421 93.575127,50.241177 88.458763,50.043201 
	C87.719917,49.422951 87.438255,48.897430 87.052444,48.092381 
	C92.007133,47.735432 97.065979,47.658009 102.584778,47.685966 
z"/>
<path fill="#000000" opacity="1.000000" stroke="none" 
	d="
M187.103378,100.514008 
	C186.721115,97.295662 186.157501,93.615738 186.061401,89.923637 
	C185.954361,85.810844 186.272614,81.686974 186.711243,77.280861 
	C187.053925,84.678215 187.091095,92.362640 187.103378,100.514008 
z"/>
<path fill="#353232" opacity="1.000000" stroke="none" 
	d="
M187.410675,103.957809 
	C186.989655,103.098228 186.997253,102.340111 187.072937,101.208641 
	C189.189545,101.323502 191.238052,101.811714 193.286575,102.299927 
	C193.186432,102.886383 193.086304,103.472832 192.986176,104.059288 
	C191.270554,104.059288 189.554932,104.059288 187.410675,103.957809 
z"/>
<path fill="#171213" opacity="1.000000" stroke="none" 
	d="
M426.495697,101.309334 
	C426.871826,101.820595 426.915405,102.376045 426.934570,103.347885 
	C423.268524,103.780556 419.626862,103.796822 415.531952,103.781357 
	C415.080780,103.220718 415.082855,102.691811 415.108459,101.765915 
	C415.566437,101.454033 416.000916,101.539146 416.933594,102.056664 
	C417.860199,102.549194 418.288574,102.609306 418.716949,102.669418 
	C420.091644,102.485924 421.466309,102.302422 423.397583,102.431938 
	C424.302399,102.498077 424.650604,102.251205 424.998840,102.004341 
	C425.386932,101.787407 425.775055,101.570465 426.495697,101.309334 
z"/>
<path fill="#10090B" opacity="1.000000" stroke="none" 
	d="
M78.577026,47.698006 
	C79.018517,48.321960 79.010483,48.831097 78.985519,49.721783 
	C76.637878,50.103333 74.307167,50.103333 71.976448,50.103333 
	C71.939484,49.360424 71.902519,48.617516 71.865555,47.874607 
	C73.952873,47.777470 76.040192,47.680328 78.577026,47.698006 
z"/>
<path fill="#353232" opacity="1.000000" stroke="none" 
	d="
M177.709641,101.616837 
	C178.057175,102.303665 178.039978,102.821075 178.020355,103.597412 
	C176.736862,103.856339 175.455795,103.856339 174.174744,103.856339 
	C174.056381,103.468315 173.938019,103.080284 173.819672,102.692261 
	C174.994751,102.277306 176.169846,101.862358 177.709641,101.616837 
z"/>
<path fill="#575556" opacity="1.000000" stroke="none" 
	d="
M78.602432,101.119408 
	C78.893616,101.357330 78.764626,101.669441 78.031860,102.193207 
	C75.684807,102.617653 73.941528,102.830437 72.198257,103.043228 
	C74.192924,102.426682 76.187599,101.810135 78.602432,101.119408 
z"/>
<path fill="#10090B" opacity="1.000000" stroke="none" 
	d="
M109.280243,58.299820 
	C110.085373,58.041512 110.888031,58.049297 111.991997,58.055740 
	C112.112099,59.368267 111.930885,60.682140 111.302696,61.703060 
	C110.555168,60.943905 110.254623,60.477703 109.954071,60.011505 
	C109.728638,59.529640 109.503197,59.047779 109.280243,58.299820 
z"/>
<path fill="#353232" opacity="1.000000" stroke="none" 
	d="
M72.095078,103.248405 
	C73.941528,102.830437 75.684807,102.617653 77.802765,102.326096 
	C78.383766,102.633972 78.590080,103.020615 78.896667,103.607178 
	C76.968010,103.871078 74.939064,103.935051 72.476700,103.954514 
	C72.043274,103.910011 71.991905,103.453583 72.095078,103.248405 
z"/>
<path fill="#211B1D" opacity="1.000000" stroke="none" 
	d="
M373.004730,79.393997 
	C375.752899,79.884964 375.619232,81.232918 373.378418,82.936142 
	C373.001984,81.930374 372.965179,80.860008 373.004730,79.393997 
z"/>
<path fill="#423F3F" opacity="1.000000" stroke="none" 
	d="
M259.747803,63.345772 
	C260.005920,64.079109 259.957336,64.717339 259.955109,65.673111 
	C259.814667,65.077324 259.627899,64.163986 259.747803,63.345772 
z"/>
<path fill="#423F3F" opacity="1.000000" stroke="none" 
	d="
M276.294739,66.056610 
	C276.002228,65.360474 276.004486,64.721153 275.974854,63.761429 
	C276.158447,64.331825 276.373932,65.222618 276.294739,66.056610 
z"/>
<path fill="#221D1F" opacity="1.000000" stroke="none" 
	d="
M298.328613,103.909088 
	C298.811157,103.225357 299.621063,102.615349 300.783875,102.002396 
	C300.840454,102.472694 300.544067,102.945946 300.122803,103.706711 
	C299.550568,103.990433 299.103271,103.986626 298.328613,103.909088 
z"/>
<path fill="#0B0002" opacity="1.000000" stroke="none" 
	d="
M7.332371,28.277710 
	C7.225144,29.101805 6.655524,29.655107 6.085904,30.208410 
	C5.717362,29.780590 5.348821,29.352772 4.980279,28.924952 
	C5.610178,28.618940 6.240078,28.312929 7.332371,28.277710 
z"/>
<path fill="#423F3F" opacity="1.000000" stroke="none" 
	d="
M109.890472,60.352318 
	C110.254623,60.477703 110.555168,60.943905 110.933350,61.689262 
	C110.616272,61.543320 110.221573,61.118225 109.890472,60.352318 
z"/>
<path fill="#000000" opacity="1.000000" stroke="none" 
	d="
M418.579956,102.331985 
	C418.288574,102.609306 417.860199,102.549194 417.213806,102.237427 
	C417.478149,101.988708 417.960571,101.991638 418.579956,102.331985 
z"/>
<path fill="#000000" opacity="1.000000" stroke="none" 
	d="
M424.634521,101.963135 
	C424.650604,102.251205 424.302399,102.498077 423.623291,102.729660 
	C423.618347,102.450218 423.944305,102.186073 424.634521,101.963135 
z"/>
<path fill="#000000" opacity="1.000000" stroke="none" 
	d="
M211.904816,100.734131 
	C211.684753,100.802605 211.516235,100.651642 211.394363,100.469467 
	C211.366165,100.427330 211.497437,100.278496 211.713318,100.105774 
	C211.871338,100.032799 211.973312,100.503349 211.904816,100.734131 
z"/>
<path fill="#353232" opacity="1.000000" stroke="none" 
	d="
M111.231613,103.889389 
	C111.100494,103.545631 111.271179,103.338348 111.689133,103.091965 
	C111.870567,102.998665 112.020950,103.452019 111.993149,103.689224 
	C111.965355,103.926422 111.467598,103.971664 111.231613,103.889389 
z"/>
<path fill="#000000" opacity="1.000000" stroke="none" 
	d="
M12.060431,100.267517 
	C12.272715,100.197906 12.439249,100.361000 12.567389,100.550095 
	C12.586473,100.578262 12.424902,100.728836 12.185560,100.913528 
	C12.024214,101.004265 12.002234,100.508652 12.060431,100.267517 
z"/>
<path fill="#171213" opacity="1.000000" stroke="none" 
	d="
M284.661987,72.858582 
	C284.877289,73.082855 284.758453,73.389732 284.360657,73.817116 
	C284.245789,73.637253 284.327820,73.305107 284.661987,72.858582 
z"/>
<path fill="#000000" opacity="1.000000" stroke="none" 
	d="
M211.922134,73.738037 
	C211.758987,73.723198 211.646667,73.473488 211.682571,73.133926 
	C211.830811,73.044083 211.972961,73.503174 211.922134,73.738037 
z"/>
<path fill="#2C2829" opacity="1.000000" stroke="none" 
	d="
M431.749847,48.090828 
	C431.674530,48.211971 431.393951,48.185894 431.089905,47.970291 
	C431.225861,47.835049 431.385254,47.889328 431.749847,48.090828 
z"/>
<path fill="#10090B" opacity="1.000000" stroke="none" 
	d="
M112.312637,48.529015 
	C111.970726,48.718853 111.596107,48.529350 111.065262,48.060318 
	C111.366005,47.903751 111.822960,48.026714 112.312637,48.529015 
z"/>
<path fill="#0B0002" opacity="1.000000" stroke="none" 
	d="
M314.506500,28.988476 
	C315.013336,28.812006 315.323517,29.077414 315.797546,29.599623 
	C315.410889,29.714401 314.860352,29.572376 314.506500,28.988476 
z"/>
<path fill="#10090B" opacity="1.000000" stroke="none" 
	d="
M20.191942,100.760223 
	C19.902719,100.841080 19.704702,100.670502 19.542459,100.470856 
	C19.521580,100.445160 19.686264,100.268661 19.941574,100.065338 
	C20.176844,100.145706 20.235529,100.322754 20.191942,100.760223 
z"/>
<path fill="#10090B" opacity="1.000000" stroke="none" 
	d="
M20.208946,51.762398 
	C19.925362,51.847725 19.722631,51.677113 19.553949,51.477703 
	C19.534073,51.454201 19.701105,51.272591 19.959848,51.063183 
	C20.192141,51.140671 20.246077,51.319244 20.208946,51.762398 
z"/>
<path fill="#F7F7F7" opacity="1.000000" stroke="none" 
	d="
M342.195862,98.951981 
	C332.244415,91.281166 329.990692,78.941734 337.022858,70.927795 
	C344.662445,80.644417 352.301178,90.359947 360.085754,100.260948 
	C354.279846,102.109756 348.330719,102.729340 342.195862,98.951981 
z"/>
</svg>