<svg id="Layer_1" data-name="Layer 1" xmlns="http://www.w3.org/2000/svg" xmlns:xlink="http://www.w3.org/1999/xlink" viewBox="0 0 87 87"><defs><style>.cls-1{fill:none;}.cls-2,.cls-3{fill:#4687c7;}.cls-2{fill-rule:evenodd;}.cls-4{clip-path:url(#clip-path);}.cls-5{fill:url(#linear-gradient);}.cls-6{clip-path:url(#clip-path-2);}.cls-7{fill:url(#linear-gradient-2);}.cls-8{clip-path:url(#clip-path-3);}.cls-9{fill:url(#linear-gradient-3);}.cls-10{clip-path:url(#clip-path-4);}.cls-11{fill:url(#linear-gradient-4);}.cls-12{clip-path:url(#clip-path-5);}.cls-13{fill:url(#linear-gradient-5);}.cls-14{clip-path:url(#clip-path-6);}.cls-15{fill:url(#linear-gradient-6);}.cls-16{clip-path:url(#clip-path-7);}.cls-17{fill:url(#linear-gradient-7);}.cls-18{clip-path:url(#clip-path-8);}.cls-19{fill:url(#linear-gradient-8);}.cls-20{clip-path:url(#clip-path-9);}.cls-21{fill:url(#linear-gradient-9);}.cls-22{clip-path:url(#clip-path-10);}.cls-23{fill:url(#linear-gradient-10);}.cls-24{clip-path:url(#clip-path-11);}.cls-25{fill:url(#linear-gradient-11);}.cls-26{clip-path:url(#clip-path-12);}.cls-27{fill:url(#linear-gradient-12);}.cls-28{clip-path:url(#clip-path-13);}.cls-29{fill:url(#linear-gradient-13);}</style><clipPath id="clip-path"><path class="cls-1" d="M15,50.49a1.16,1.16,0,0,1-1.28-1.21A3.11,3.11,0,0,0,15,51.8a2.64,2.64,0,0,0,.7.3,3.82,3.82,0,0,0,.51.11c.61-.22,1.15-.59,1.94-1.87a13.91,13.91,0,0,1-1.06-1.9,2.27,2.27,0,0,1-2,2.05"/></clipPath><linearGradient id="linear-gradient" x1="-255.92" y1="445.75" x2="-255.58" y2="445.75" gradientTransform="matrix(22.29, 0, 0, -22.29, 5716.15, 9986.96)" gradientUnits="userSpaceOnUse"><stop offset="0" stop-color="#e63d81"/><stop offset="1" stop-color="#704f98"/></linearGradient><clipPath id="clip-path-2"><path class="cls-1" d="M17.94,44a4.78,4.78,0,0,0-1.26,2.44c0,.1,0,.19,0,.29v.14a6.41,6.41,0,0,0,.07,1,6,6,0,0,0,.37,1.29,5.12,5.12,0,0,0,.28.58,5.32,5.32,0,0,0,.42.67,4.89,4.89,0,0,0,.58.62A5.33,5.33,0,0,0,22,52.35a8.21,8.21,0,0,0,1.54-.13h0c.14,0,.27-.06.4-.09a6.51,6.51,0,0,1-4.34-2.22l-.18-.22-.1-.12a3,3,0,0,1-.25-.37C19.06,49.12,19,49,19,49a2.33,2.33,0,0,1-.14-.33,4.67,4.67,0,0,1-.31-1.57v-.24c0-.08,0-.16,0-.25v0c0-.08,0-.16,0-.24A3.46,3.46,0,0,1,22.19,43a4.17,4.17,0,0,1,1.41.22l-.29-.11a6.18,6.18,0,0,0-2-.35A4.6,4.6,0,0,0,17.94,44"/></clipPath><linearGradient id="linear-gradient-2" x1="-239.59" y1="471.58" x2="-239.25" y2="471.58" gradientTransform="matrix(0, 27.35, 27.35, 0, -12876.67, 6595.24)" gradientUnits="userSpaceOnUse"><stop offset="0" stop-color="#e63f30"/><stop offset="0.45" stop-color="#e63e56"/><stop offset="1" stop-color="#e63d81"/></linearGradient><clipPath id="clip-path-3"><path class="cls-1" d="M11.81,39.38v8.4a7.27,7.27,0,0,0,.78,3.49,2.91,2.91,0,0,0,1.17.9,3.18,3.18,0,0,0,1.9.18l.28-.06.24-.08A3.3,3.3,0,0,1,15,51.8a3.22,3.22,0,0,1-1.26-2.75V43h2.38a.76.76,0,0,0,.76-.76.77.77,0,0,0-.76-.77H13.7V39.38a.95.95,0,0,0-1.89,0"/></clipPath><linearGradient id="linear-gradient-3" x1="-241.36" y1="470.91" x2="-241.02" y2="470.91" gradientTransform="matrix(0, 31.75, 31.75, 0, -14935.9, 7704.19)" xlink:href="#linear-gradient-2"/><clipPath id="clip-path-4"><path class="cls-1" d="M11.81,39.38h0V45c0-2.16.82-3.53,1.89-3.53V39.38a.95.95,0,0,0-1.89,0"/></clipPath><linearGradient id="linear-gradient-4" x1="-232.81" y1="475.95" x2="-232.47" y2="475.95" gradientTransform="matrix(0, 18.58, 18.58, 0, -8830.23, 4363.94)" gradientUnits="userSpaceOnUse"><stop offset="0" stop-color="#fdcd0c"/><stop offset="0.43" stop-color="#f2931c"/><stop offset="0.81" stop-color="#e96627"/><stop offset="1" stop-color="#e6552c"/></linearGradient><clipPath id="clip-path-5"><path class="cls-1" d="M28.67,42h0m0,0Zm0,0h0"/></clipPath><linearGradient id="linear-gradient-5" x1="-234.44" y1="428.86" x2="-234.02" y2="428.86" gradientTransform="matrix(10.47, 0, 0, -10.47, 2481.13, 4532.26)" gradientUnits="userSpaceOnUse"><stop offset="0" stop-color="#96c240"/><stop offset="0.34" stop-color="#63c1c9"/><stop offset="0.69" stop-color="#809ed1"/><stop offset="1" stop-color="#9980b8"/></linearGradient><clipPath id="clip-path-6"><path class="cls-1" d="M32.38,52h0m0,0h0m0,0h0"/></clipPath><linearGradient id="linear-gradient-6" x1="-249.44" y1="457.21" x2="-248.92" y2="457.21" gradientTransform="matrix(51.28, 0, 0, -51.28, 12824.92, 23496.5)" xlink:href="#linear-gradient-5"/><clipPath id="clip-path-7"><path class="cls-1" d="M31.94,49.44c0,1-.67,1.4-1.7,1.4a4.65,4.65,0,0,1-1.83-.44.8.8,0,0,0-1.16.69.79.79,0,0,0,.49.69,5.37,5.37,0,0,0,.83.34,6,6,0,0,0,1.78.25,5.4,5.4,0,0,0,1.21-.12,2.46,2.46,0,0,0,1.1-.47l.08-.09a1.58,1.58,0,0,0,.22-.88,3.18,3.18,0,0,0-1.13-2.31,3.13,3.13,0,0,0-.7-.59,1.83,1.83,0,0,1,.81,1.53"/></clipPath><linearGradient id="linear-gradient-7" x1="-251.27" y1="479.97" x2="-250.93" y2="479.97" gradientTransform="matrix(-24.9, 0, 0, 24.9, -6223, -11903.16)" xlink:href="#linear-gradient"/><clipPath id="clip-path-8"><polyline class="cls-1" points="23.58 52.22 23.58 52.22 23.58 52.22"/></clipPath><linearGradient id="linear-gradient-8" x1="-249.5" y1="459.17" x2="-249.5" y2="459.17" gradientTransform="matrix(72.05, 0, 0, -72.05, 18000, 33135)" xlink:href="#linear-gradient-5"/><clipPath id="clip-path-9"><path class="cls-1" d="M28.29,42.33Z"/></clipPath><linearGradient id="linear-gradient-9" x1="1538.27" y1="-2961.56" x2="1538.5" y2="-2961.56" gradientTransform="matrix(0.11, 0, 0, -0.11, -136.62, -275.15)" xlink:href="#linear-gradient-5"/><clipPath id="clip-path-10"><path class="cls-1" d="M28.29,42.33h0l-.1.1a3.43,3.43,0,0,0-.64.87,6.2,6.2,0,0,0-.37.89c-.11.35-.2.7-.28,1.06a12.94,12.94,0,0,1-1,3.43,4.23,4.23,0,0,1-2,1.8,4.17,4.17,0,0,1-1.76.36,4.07,4.07,0,0,1-1-.1,3.28,3.28,0,0,1-1.78-1.05l.18.22A6.51,6.51,0,0,0,24,52.13a3.79,3.79,0,0,0,.73-.28,5.62,5.62,0,0,0,.74-.45,6.63,6.63,0,0,0,1-.91,7,7,0,0,0,1.15-1.86,8.15,8.15,0,0,0,.29-.83c.05-.15.09-.31.13-.47.12-.5.25-1.14.36-1.65A7,7,0,0,1,28,44.11a4,4,0,0,1,.17-1.22,1.25,1.25,0,0,1,.18-.45s0,0,0,0,.15-.1.11-.12l.23-.26-.4.32"/></clipPath><linearGradient id="linear-gradient-10" x1="-254.43" y1="454.99" x2="-254.09" y2="454.99" gradientTransform="matrix(44.59, 0, 0, -44.59, 11359.69, 20336.09)" xlink:href="#linear-gradient"/><clipPath id="clip-path-11"><path class="cls-1" d="M20.44,41.67a4.86,4.86,0,0,0-1.28.55,5.2,5.2,0,0,0-1,.83l-.13.14a4,4,0,0,0-.44.56c-.08.12-.16.25-.23.38h0a5.93,5.93,0,0,0-.64,2.33A4.78,4.78,0,0,1,17.94,44a5.16,5.16,0,0,1,5.37-.93l.29.11c.22.09.43.18.64.29l.19.09a.83.83,0,0,0,.45.14.69.69,0,0,0,.2,0,.8.8,0,0,0,.56-.77.72.72,0,0,0-.35-.62A5,5,0,0,0,23,41.53a8.07,8.07,0,0,0-1-.07,5.53,5.53,0,0,0-1.56.21"/></clipPath><linearGradient id="linear-gradient-11" x1="-244.84" y1="450.17" x2="-244.5" y2="450.17" gradientTransform="matrix(26.31, 0, 0, -26.31, 6459.32, 11889.45)" xlink:href="#linear-gradient-4"/><clipPath id="clip-path-12"><path class="cls-1" d="M30.13,41.49a3.17,3.17,0,0,0-1.2.37l-.07,0-.08.05a1.58,1.58,0,0,0-.65.91,1.33,1.33,0,0,0-.05.71,1.63,1.63,0,0,0,.72.86c.56.37,1.19.64,1.76,1a2.87,2.87,0,0,1-.79-.8,1.18,1.18,0,0,1-.09-1.08,1.11,1.11,0,0,1,.7-.53,2,2,0,0,1,.9,0,5.65,5.65,0,0,1,1,.26,1.36,1.36,0,0,0,.52.12.7.7,0,0,0,.55-.27.71.71,0,0,0,.13-.6,1.12,1.12,0,0,0-.67-.69,4.18,4.18,0,0,0-1.4-.3q-.36,0-.72,0a5.15,5.15,0,0,0-.56,0"/></clipPath><linearGradient id="linear-gradient-12" x1="-240.77" y1="440.69" x2="-240.43" y2="440.69" gradientTransform="matrix(15.68, 0, 0, -15.68, 3803.94, 6954.53)" xlink:href="#linear-gradient-4"/><clipPath id="clip-path-13"><path class="cls-1" d="M28.43,45.76a3.89,3.89,0,0,0,1.2,1.12c.49.34,1,.69,1.48,1a4.49,4.49,0,0,1,.94.85,3.07,3.07,0,0,1,.9,2.09,1.59,1.59,0,0,1-.06.43,1.2,1.2,0,0,1-.44.66,2.85,2.85,0,0,0,1.28-3.17,4.92,4.92,0,0,0-2.2-2.7l-.58-.4-.6-.37-.5-.29-.69-.43a2.54,2.54,0,0,1-.91-.93,1.24,1.24,0,0,1-.13-.75,3.69,3.69,0,0,0,.31,2.87"/></clipPath><linearGradient id="linear-gradient-13" x1="-237.64" y1="461.43" x2="-237.3" y2="461.43" gradientTransform="matrix(0, 26.47, 26.47, 0, -12185.47, 6334.25)" xlink:href="#linear-gradient-2"/></defs><path class="cls-2" d="M63.75,39.86,63,42H61.68L63,38.46h1.47L65.82,42H64.46ZM62,39.47v-1H58.64v1h1V42H61V39.47Zm-5.1.39L56.2,42H54.84l1.33-3.49h1.48L59,42H57.62Zm-1.74-.39v-1H51.81v1h1V42h1.4V39.47Z"/><path class="cls-2" d="M74.23,47.18V45.71l1.16-2h-.72l-.42.9c-.12.25-.22.47-.3.69h0c-.1-.24-.19-.43-.31-.69l-.41-.9h-.73l1.1,2v1.45Zm-2.07-.6a2,2,0,0,1-.7.12,1.13,1.13,0,0,1-1.21-1.25,1.16,1.16,0,0,1,1.22-1.29,1.73,1.73,0,0,1,.68.14l.14-.51a2,2,0,0,0-.85-.15,1.75,1.75,0,0,0-1.86,1.84,1.65,1.65,0,0,0,1.78,1.76,2.32,2.32,0,0,0,.9-.16Zm-5.31.6V45.93c0-.57,0-1,0-1.48h0a9.94,9.94,0,0,0,.63,1.21l.91,1.53H69V43.69h-.59v1.22c0,.53,0,1,0,1.45h0a9.17,9.17,0,0,0-.59-1.17l-.9-1.5h-.73v3.49Zm-3.08-1.47.27-.86c.06-.21.12-.45.17-.65h0c0,.2.11.44.18.65l.27.86Zm1,.49.31,1h.69l-1.14-3.49h-.81l-1.12,3.49h.66l.3-1Zm-3.48,1h.64v-3h1v-.54H60.3v.54h1Zm-2.71,0h2.07v-.53H59.22v-3h-.63Zm-3.45-3.49v2c0,1.1.52,1.55,1.33,1.55s1.39-.48,1.39-1.55v-2h-.64v2c0,.68-.27,1-.73,1s-.72-.32-.72-1v-2ZM52.3,47a2,2,0,0,0,1,.23c.9,0,1.32-.49,1.32-1.05s-.29-.81-.9-1-.67-.3-.67-.57.18-.42.58-.42a1.47,1.47,0,0,1,.7.17l.15-.52a1.89,1.89,0,0,0-.84-.17c-.75,0-1.23.43-1.23,1s.37.81.94,1,.62.32.62.58-.23.48-.63.48a1.9,1.9,0,0,1-.85-.22Zm-2.75.17V45.93c0-.57,0-1,0-1.48h0a11.5,11.5,0,0,0,.62,1.21l.92,1.53h.65V43.69h-.58v1.22c0,.53,0,1,0,1.45h0a9.17,9.17,0,0,0-.59-1.17l-.9-1.5H49v3.49Zm-2.79-.45c-.6,0-1-.59-1-1.28s.34-1.3,1-1.3,1,.62,1,1.28-.34,1.3-1,1.3Zm0,.51a1.65,1.65,0,0,0,1.66-1.84,1.6,1.6,0,0,0-1.62-1.76,1.67,1.67,0,0,0-1.66,1.82,1.62,1.62,0,0,0,1.61,1.78Zm-1.93-.66a2,2,0,0,1-.7.12,1.14,1.14,0,0,1-1.21-1.25,1.16,1.16,0,0,1,1.22-1.29,1.73,1.73,0,0,1,.68.14l.14-.51a2,2,0,0,0-.85-.15,1.75,1.75,0,0,0-1.86,1.84A1.65,1.65,0,0,0,44,47.24a2.32,2.32,0,0,0,.9-.16Z"/><path class="cls-2" d="M54.56,49.43a2.29,2.29,0,0,1,.39,0c.41,0,.68.18.68.56s-.27.57-.7.57h-.37Zm-.63,3h.63V51h.32c.36,0,.52.15.62.6a5.41,5.41,0,0,0,.23.82h.65a7.38,7.38,0,0,1-.27-1,.87.87,0,0,0-.48-.67v0a.92.92,0,0,0,.63-.86.88.88,0,0,0-.3-.7,1.77,1.77,0,0,0-1.07-.28,4.63,4.63,0,0,0-1,.08Zm-5.5-.17a2,2,0,0,0,.94.23c.9,0,1.33-.49,1.33-1s-.3-.81-.9-1-.67-.3-.67-.57.17-.42.58-.42a1.39,1.39,0,0,1,.69.17l.16-.52a1.89,1.89,0,0,0-.84-.17c-.76,0-1.23.43-1.23,1s.37.81.94,1,.62.32.62.58-.23.48-.64.48a1.77,1.77,0,0,1-.84-.22Zm4.79-1.9H51.91v-.89H53.3v-.53h-2v3.49h2.11v-.52H51.91v-1h1.31Zm5.21,2.07,1.2-3.49H59l-.5,1.6a12.63,12.63,0,0,0-.36,1.26h0c-.09-.42-.21-.83-.34-1.27l-.48-1.59h-.69l1.13,3.49Zm1.58,0h.63V48.92H60Zm3.76-.6a2,2,0,0,1-.69.12,1.14,1.14,0,0,1-1.22-1.25,1.17,1.17,0,0,1,1.23-1.29,1.77,1.77,0,0,1,.68.14L63.9,49a1.9,1.9,0,0,0-.84-.15,1.76,1.76,0,0,0-1.87,1.84A1.65,1.65,0,0,0,63,52.47a2.34,2.34,0,0,0,.91-.16Zm2.6-1.47H65.05v-.89h1.4v-.53h-2v3.49h2.1v-.52H65.05v-1h1.32Zm.56,1.9a2,2,0,0,0,.94.23c.9,0,1.32-.49,1.32-1s-.29-.81-.89-1-.67-.3-.67-.57.17-.42.57-.42a1.44,1.44,0,0,1,.7.17l.15-.52a1.84,1.84,0,0,0-.83-.17c-.76,0-1.24.43-1.24,1s.37.81,1,1,.62.32.62.58-.23.48-.64.48a1.73,1.73,0,0,1-.84-.22Z"/><rect class="cls-3" x="37.62" y="38.46" width="0.64" height="13.95"/><g class="cls-4"><rect class="cls-5" x="13.03" y="47.46" width="5.78" height="5.73" transform="translate(-29.44 23.33) rotate(-41.68)"/></g><g class="cls-6"><rect class="cls-7" x="16.67" y="42.74" width="7.31" height="9.62"/></g><g class="cls-8"><rect class="cls-9" x="11.81" y="38.46" width="5.04" height="13.96"/></g><g class="cls-10"><rect class="cls-11" x="11.81" y="38.46" width="1.89" height="6.52"/></g><g class="cls-12"><rect class="cls-13" x="28.67" y="41.97"/></g><g class="cls-14"><rect class="cls-15" x="32.38" y="51.95" width="0.01" height="0.01"/></g><g class="cls-16"><rect class="cls-17" x="26.49" y="46.72" width="7.22" height="6.85" transform="translate(-22.44 24.45) rotate(-32.97)"/></g><g class="cls-18"><rect class="cls-19" x="23.58" y="52.22"/></g><g class="cls-20"><rect class="cls-21" x="28.29" y="42.33"/></g><g class="cls-22"><rect class="cls-23" x="17.28" y="40.22" width="13.6" height="13.69" transform="translate(-24.86 27.07) rotate(-40.68)"/></g><g class="cls-24"><rect class="cls-25" x="16.68" y="41.46" width="8.95" height="5"/></g><g class="cls-26"><rect class="cls-27" x="28.02" y="41.47" width="5.51" height="3.96"/></g><g class="cls-28"><rect class="cls-29" x="25.74" y="41.94" width="10.38" height="10.93" transform="translate(-22.38 28.38) rotate(-37.23)"/></g></svg>